<svg xmlns="http://www.w3.org/2000/svg" xmlns:xlink="http://www.w3.org/1999/xlink" version="1.1" id="Layer_1" x="0px" y="0px" viewBox="0 0 40 40" style="enable-background:new 0 0 40 40;" xml:space="preserve" width="40" height="40">
<g>
	<polygon style="fill:#FFFFFF;" points="6.5,37.5 6.5,2.5 24.793,2.5 33.5,11.207 33.5,37.5  "/>
	<g>
		<path style="fill:#4788C7;" d="M24.586,3L33,11.414V37H7V3H24.586 M25,2H6v36h28V11L25,2L25,2z"/>
	</g>
</g>
<g>
	<polygon style="fill:#DFF0FE;" points="24.5,11.5 24.5,2.5 24.793,2.5 33.5,11.207 33.5,11.5  "/>
	<g>
		<path style="fill:#4788C7;" d="M25,3.414L32.586,11H25V3.414 M25,2h-1v10h10v-1L25,2L25,2z"/>
	</g>
</g>
<path id="XMLID_1_" style="fill:none;stroke:#4788C7;stroke-linecap:round;stroke-miterlimit:10;" d="M30,22.5c-1.595,0-2.023,2-3,2  s-1.245-3-2.5-3c0,0,0.042,5-3,5c-1.458,0-3-2.333-3-6c0-1.803,0.583-3,1.5-3s1.5,1.308,1.5,3.05c0,2.742-2.542,8.95-5,8.95  c-3.25,0-5-5.583-5-9c0-3.583,1.095-5,2-5s2,1.375,2,5c0,4.434-4,12-4,12"/>
</svg>