<svg xmlns="http://www.w3.org/2000/svg" xmlns:xlink="http://www.w3.org/1999/xlink" version="1.1" id="Layer_1" x="0px" y="0px" viewBox="0 0 40 40" style="enable-background:new 0 0 40 40;" xml:space="preserve" width="40" height="40">
<g>
	<path style="fill:#DFF0FE;" d="M29.334,38.5c-0.351,0-0.697-0.062-1.028-0.185c-3.526-1.306-10.331-4.386-16.283-10.338   S2.991,15.22,1.685,11.694C1.282,10.607,1.558,9.369,2.388,8.54L7.06,3.868C7.296,3.63,7.612,3.5,7.947,3.5s0.65,0.13,0.887,0.368   l6.204,6.204c0.237,0.237,0.368,0.552,0.368,0.887s-0.13,0.65-0.368,0.887l-3.958,3.958l0.127,0.308   c0.073,0.176,1.813,4.349,5.072,7.608s7.432,5,7.608,5.072l0.308,0.127l3.958-3.958c0.237-0.237,0.552-0.368,0.887-0.368   s0.65,0.13,0.887,0.368l6.204,6.204c0.237,0.237,0.368,0.552,0.368,0.887s-0.13,0.65-0.368,0.887l-4.672,4.672   C30.888,38.185,30.133,38.5,29.334,38.5z"/>
	<g>
		<path style="fill:#4788C7;" d="M7.947,4c0.202,0,0.391,0.079,0.534,0.221l6.204,6.204c0.143,0.143,0.221,0.332,0.221,0.534    s-0.079,0.391-0.221,0.534l-3.723,3.723l-0.471,0.471l0.254,0.616c0.074,0.18,1.852,4.442,5.181,7.771    c3.329,3.329,7.592,5.107,7.771,5.181l0.616,0.254l0.471-0.471l3.723-3.723c0.143-0.143,0.332-0.221,0.534-0.221    s0.391,0.079,0.534,0.221l6.204,6.204C35.921,31.662,36,31.852,36,32.053c0,0.202-0.079,0.391-0.221,0.534l-4.672,4.672    C30.629,37.737,29.999,38,29.334,38c-0.292,0-0.579-0.052-0.855-0.154c-3.488-1.292-10.219-4.339-16.103-10.223    C6.492,21.739,3.446,15.009,2.154,11.52c-0.335-0.904-0.104-1.935,0.588-2.627l4.672-4.672C7.556,4.079,7.745,4,7.947,4 M7.947,3    C7.498,3,7.049,3.171,6.706,3.514L2.034,8.186c-0.968,0.968-1.294,2.399-0.818,3.682c1.273,3.436,4.389,10.398,10.453,16.463    c6.065,6.065,13.027,9.18,16.463,10.453C28.525,38.93,28.931,39,29.334,39c0.914,0,1.808-0.362,2.48-1.034l4.672-4.672    c0.685-0.685,0.685-1.796,0-2.482l-6.204-6.204c-0.343-0.343-0.792-0.514-1.241-0.514s-0.898,0.171-1.241,0.514l-3.723,3.723    c0,0-4.219-1.737-7.445-4.963c-3.226-3.226-4.963-7.445-4.963-7.445l3.723-3.723c0.685-0.685,0.685-1.796,0-2.482L9.188,3.514    C8.845,3.171,8.396,3,7.947,3L7.947,3z"/>
	</g>
</g>
<g>
	<path style="fill:#B6DCFE;" d="M30.5,18.5v-3H32c1.93,0,3.5-1.57,3.5-3.5S33.93,8.5,32,8.5h-5.5v3.413L20.768,7L26.5,2.087V5.5H32   c3.584,0,6.5,2.916,6.5,6.5s-2.916,6.5-6.5,6.5H30.5z"/>
	<g>
		<path style="fill:#4788C7;" d="M26,3.174V5v1h1h5c3.308,0,6,2.692,6,6s-2.692,6-6,6h-1v-2h1c2.206,0,4-1.794,4-4s-1.794-4-4-4h-5    h-1v1v1.826L21.537,7L26,3.174 M27,1l-7,6l7,6V9h5c1.657,0,3,1.343,3,3s-1.343,3-3,3h-2v4h2c3.866,0,7-3.134,7-7s-3.134-7-7-7h-5    V1L27,1z"/>
	</g>
</g>
</svg>