<svg xmlns="http://www.w3.org/2000/svg" xmlns:xlink="http://www.w3.org/1999/xlink" version="1.1" id="Layer_1" x="0px" y="0px" viewBox="0 0 40 40" style="enable-background:new 0 0 40 40;" xml:space="preserve" width="40" height="40">
<g>
	<path style="fill:#DFF0FE;" d="M10.376,38.5c-1.166,0-2.167-0.792-2.434-1.927L4.631,22.5h30.737l-3.311,14.072   c-0.267,1.135-1.268,1.928-2.434,1.928H10.376z"/>
	<g>
		<path style="fill:#4788C7;" d="M34.737,23l-3.167,13.458C31.357,37.366,30.557,38,29.624,38H10.376    c-0.933,0-1.733-0.634-1.947-1.542L5.263,23H34.737 M36,22H4l3.456,14.687C7.775,38.042,8.984,39,10.376,39h19.248    c1.392,0,2.601-0.958,2.92-2.313L36,22L36,22z"/>
	</g>
</g>
<rect x="23" y="23" style="fill:#4788C7;" width="1" height="11"/>
<polygon style="fill:#4788C7;" points="30,23.5 31,23.5 30,34.5 29,34.5 "/>
<polygon style="fill:#4788C7;" points="10,23.5 9,23.5 10,34.5 11,34.5 "/>
<rect x="16" y="23" style="fill:#4788C7;" width="1" height="11"/>
<g>
	<path style="fill:#B6DCFE;" d="M14.571,27.5C5.898,27.5,1.5,25.313,1.5,21c0-3.495,2.369-5.5,6.5-5.5h0.5V15   c0-3.827,2.673-6.5,6.5-6.5h0.5V8c0-1.939,0.744-2.797,1.531-3.707c0.643-0.742,1.305-1.507,1.443-2.793H19   c3.417,0,8.5,1.998,8.5,7.5v0.5H28c4.966,0,10.5,3.755,10.5,9.143c0,3.892-2.523,6.058-3.435,6.713   c-1.237-1.199-2.368-1.738-3.626-1.738c-1.241,0-2.483,0.521-4.057,1.182C24.666,25.939,20.945,27.5,14.571,27.5z"/>
	<g>
		<path style="fill:#4788C7;" d="M19,2c3.216,0,8,1.864,8,7v1h1c4.73,0,10,3.549,10,8.643c0,3.265-1.899,5.242-2.904,6.06    c-1.218-1.09-2.37-1.584-3.658-1.584c-1.341,0-2.625,0.538-4.25,1.22C24.511,25.462,20.845,27,14.571,27C6.23,27,2,24.981,2,21    c0-4.35,3.759-5,6-5h1v-1c0-3.589,2.411-6,6-6h1V8c0-1.752,0.653-2.506,1.409-3.38c0.593-0.685,1.249-1.442,1.493-2.62H19 M19,1    h-1c0,3.028-3,3.021-3,7c-4.004,0-7,2.745-7,7c-4.24,0-7,2.074-7,6c0,4.867,5.068,7,13.571,7c10.104,0,13.693-3.881,16.867-3.881    c1.146,0,2.237,0.505,3.561,1.881c0,0,4-2.348,4-7.357C39,12.832,33.123,9,28,9C28,3.184,22.634,1,19,1L19,1z"/>
	</g>
</g>
<path style="fill:none;stroke:#4788C7;stroke-linecap:round;stroke-miterlimit:10;" d="M14.5,20.5c-3.314,0-6-2.686-6-6"/>
<path style="fill:#4788C7;" d="M10.5,34L10.5,34c0.276,0,0.5,0.224,0.5,0.5l0,0c0,0.275-0.225,0.5-0.5,0.5h0  c-0.275,0-0.5-0.225-0.5-0.5l0,0C10,34.224,10.224,34,10.5,34z"/>
<path style="fill:#4788C7;" d="M29.5,34L29.5,34c0.276,0,0.5,0.224,0.5,0.5l0,0c0,0.275-0.225,0.5-0.5,0.5l0,0  c-0.275,0-0.5-0.225-0.5-0.5l0,0C29,34.224,29.224,34,29.5,34z"/>
<path style="fill:#4788C7;" d="M16,34h1v0.5c0,0.275-0.225,0.5-0.5,0.5l0,0c-0.275,0-0.5-0.225-0.5-0.5V34z"/>
<path style="fill:#4788C7;" d="M23,34h1v0.5c0,0.275-0.225,0.5-0.5,0.5l0,0c-0.275,0-0.5-0.225-0.5-0.5V34z"/>
</svg>