<svg xmlns="http://www.w3.org/2000/svg" xmlns:xlink="http://www.w3.org/1999/xlink" version="1.1" id="Layer_1" x="0px" y="0px" viewBox="0 0 40 40" style="enable-background:new 0 0 40 40;" xml:space="preserve" width="40" height="40">
<g>
	<rect x="5.5" y="1.5" style="fill:#FFFFFF;" width="29" height="37"/>
	<g>
		<path style="fill:#4788C7;" d="M34,2v36H6V2H34 M35,1H5v38h30V1L35,1z"/>
	</g>
</g>
<g>
	<polygon style="fill:#98CCFD;" points="19.707,29 23,25.707 27.793,30.5 24.5,30.5 24.5,33.793  "/>
	<g>
		<path style="fill:#4788C7;" d="M23,26.414L26.586,30H25h-1v1v1.586L20.414,29L23,26.414 M23,25l-4,4l6,6v-4h4L23,25L23,25z"/>
	</g>
</g>
<g>
	<polygon style="fill:#98CCFD;" points="15.5,30.5 12.207,30.5 17,25.707 20.293,29 15.5,33.793  "/>
	<g>
		<path style="fill:#4788C7;" d="M17,26.414L19.586,29L16,32.586V31v-1h-1h-1.586L17,26.414 M17,25l-6,6h4v4l6-6L17,25L17,25z"/>
	</g>
</g>
<g>
	<circle style="fill:#B6DCFE;" cx="20" cy="26" r="3.5"/>
	<path style="fill:#4788C7;" d="M20,23c1.654,0,3,1.346,3,3s-1.346,3-3,3s-3-1.346-3-3S18.346,23,20,23 M20,22c-2.209,0-4,1.791-4,4   s1.791,4,4,4s4-1.791,4-4S22.209,22,20,22L20,22z"/>
</g>
<path style="fill:#4788C7;" d="M35,34c-2.761,0-5,2.239-5,5h5V34z"/>
<path style="fill:#4788C7;" d="M5,6c2.761,0,5-2.239,5-5H5V6z"/>
<path style="fill:#4788C7;" d="M5,34c2.761,0,5,2.239,5,5H5V34z"/>
<path style="fill:#4788C7;" d="M35,6c-2.761,0-5-2.239-5-5h5V6z"/>
<path style="fill:#4788C7;" d="M27,11H13c-0.552,0-1-0.448-1-1v0c0-0.552,0.448-1,1-1h14c0.552,0,1,0.448,1,1v0  C28,10.552,27.552,11,27,11z"/>
<path style="fill:#4788C7;" d="M27.5,15h-15c-0.276,0-0.5-0.224-0.5-0.5v0c0-0.276,0.224-0.5,0.5-0.5h15c0.276,0,0.5,0.224,0.5,0.5  v0C28,14.776,27.776,15,27.5,15z"/>
<path style="fill:#4788C7;" d="M27.5,17h-15c-0.276,0-0.5-0.224-0.5-0.5l0,0c0-0.276,0.224-0.5,0.5-0.5h15  c0.276,0,0.5,0.224,0.5,0.5l0,0C28,16.776,27.776,17,27.5,17z"/>
</svg>