<svg xmlns="http://www.w3.org/2000/svg" xmlns:xlink="http://www.w3.org/1999/xlink" version="1.1" id="Layer_1" x="0px" y="0px" viewBox="0 0 40 40" style="enable-background:new 0 0 40 40;" xml:space="preserve" width="40" height="40">
<g>
	<rect x="22.5" y="1.5" style="fill:#98CCFD;" width="15" height="37"/>
	<g>
		<path style="fill:#4788C7;" d="M37,2v36H23V2H37 M38,1H22v38h16V1L38,1z"/>
	</g>
</g>
<path style="fill:#4788C7;" d="M34.5,6h-9C25.224,6,25,5.776,25,5.5v0C25,5.224,25.224,5,25.5,5h9C34.776,5,35,5.224,35,5.5v0  C35,5.776,34.776,6,34.5,6z"/>
<path style="fill:#4788C7;" d="M34.5,35h-9c-0.276,0-0.5-0.224-0.5-0.5l0,0c0-0.276,0.224-0.5,0.5-0.5h9c0.276,0,0.5,0.224,0.5,0.5  l0,0C35,34.776,34.776,35,34.5,35z"/>
<path style="fill:#4788C7;" d="M34.5,33h-9c-0.276,0-0.5-0.224-0.5-0.5l0,0c0-0.276,0.224-0.5,0.5-0.5h9c0.276,0,0.5,0.224,0.5,0.5  l0,0C35,32.776,34.776,33,34.5,33z"/>
<polygon style="fill:#FFFFFF;" points="30,13.888 31.545,17.018 35,17.52 32.5,19.957 33.09,23.398 30,21.774 26.91,23.398   27.5,19.957 25,17.52 28.455,17.018 "/>
<g>
	<rect x="2.5" y="1.5" style="fill:#98CCFD;" width="15" height="37"/>
	<g>
		<path style="fill:#4788C7;" d="M17,2v36H3V2H17 M18,1H2v38h16V1L18,1z"/>
	</g>
</g>
<path style="fill:#4788C7;" d="M14.5,6h-9C5.224,6,5,5.776,5,5.5v0C5,5.224,5.224,5,5.5,5h9C14.776,5,15,5.224,15,5.5v0  C15,5.776,14.776,6,14.5,6z"/>
<path style="fill:#4788C7;" d="M14.5,35h-9C5.224,35,5,34.776,5,34.5l0,0C5,34.224,5.224,34,5.5,34h9c0.276,0,0.5,0.224,0.5,0.5l0,0  C15,34.776,14.776,35,14.5,35z"/>
<path style="fill:#4788C7;" d="M14.5,33h-9C5.224,33,5,32.776,5,32.5l0,0C5,32.224,5.224,32,5.5,32h9c0.276,0,0.5,0.224,0.5,0.5l0,0  C15,32.776,14.776,33,14.5,33z"/>
<polygon style="fill:#FFFFFF;" points="10,13.888 11.545,17.018 15,17.52 12.5,19.957 13.09,23.398 10,21.774 6.91,23.398   7.5,19.957 5,17.52 8.455,17.018 "/>
</svg>