<svg xmlns="http://www.w3.org/2000/svg" xmlns:xlink="http://www.w3.org/1999/xlink" version="1.1" id="Layer_1" x="0px" y="0px" viewBox="0 0 40 40" style="enable-background:new 0 0 40 40;" xml:space="preserve" width="40" height="40">
<g>
	<polygon style="fill:#FFFFFF;" points="6.5,37.5 6.5,2.5 24.793,2.5 33.5,11.207 33.5,37.5  "/>
	<g>
		<path style="fill:#4788C7;" d="M24.586,3L33,11.414V37H7V3H24.586 M25,2H6v36h28V11L25,2L25,2z"/>
	</g>
</g>
<g>
	<polygon style="fill:#DFF0FE;" points="24.5,11.5 24.5,2.5 24.793,2.5 33.5,11.207 33.5,11.5  "/>
	<g>
		<path style="fill:#4788C7;" d="M25,3.414L32.586,11H25V3.414 M25,2h-1v10h10v-1L25,2L25,2z"/>
	</g>
</g>
<path style="fill:#4788C7;" d="M24,18H12.5c-0.276,0-0.5-0.224-0.5-0.5v0c0-0.276,0.224-0.5,0.5-0.5H24V18z"/>
<path style="fill:#4788C7;" d="M24,22H12.5c-0.276,0-0.5-0.224-0.5-0.5v0c0-0.276,0.224-0.5,0.5-0.5H24V22z"/>
<path style="fill:#4788C7;" d="M24,26H12.5c-0.276,0-0.5-0.224-0.5-0.5v0c0-0.276,0.224-0.5,0.5-0.5H24V26z"/>
<path style="fill:#4788C7;" d="M24,30H12.5c-0.276,0-0.5-0.224-0.5-0.5v0c0-0.276,0.224-0.5,0.5-0.5H24V30z"/>
<polygon style="fill:#FFFFFF;" points="34,37 33,36 33,29.732 34,30.676 "/>
<g>
	<path style="fill:#4788C7;" d="M24.58,23.004l10.988,10.475c0.577,0.577,0.577,1.512,0,2.088l0,0c-0.577,0.577-1.512,0.577-2.088,0   L23,24.585L24.58,23.004z"/>
</g>
<g>
	<circle style="fill:#DFF0FE;" cx="23.5" cy="23.5" r="7"/>
	<g>
		<path style="fill:#4788C7;" d="M23.5,17c3.584,0,6.5,2.916,6.5,6.5S27.084,30,23.5,30S17,27.084,17,23.5S19.916,17,23.5,17     M23.5,16c-4.142,0-7.5,3.358-7.5,7.5s3.358,7.5,7.5,7.5s7.5-3.358,7.5-7.5S27.642,16,23.5,16L23.5,16z"/>
	</g>
</g>
<g>
	<path style="fill:#4788C7;" d="M18.633,27H25c0.552,0,1-0.448,1-1v0c0-0.552-0.448-1-1-1h-7.303   C17.885,25.73,18.205,26.405,18.633,27z"/>
	<path style="fill:#4788C7;" d="M17.697,22H25c0.552,0,1-0.448,1-1v0c0-0.552-0.448-1-1-1h-6.367   C18.205,20.595,17.885,21.27,17.697,22z"/>
</g>
</svg>