<svg xmlns="http://www.w3.org/2000/svg" xmlns:xlink="http://www.w3.org/1999/xlink" version="1.1" id="Layer_1" x="0px" y="0px" viewBox="0 0 40 40" style="enable-background:new 0 0 40 40;" xml:space="preserve" width="40" height="40">
<g>
	<path style="fill:#98CCFD;" d="M23.5,31.5v-19h10.761c0.554,0,1.061,0.304,1.321,0.792l3.504,6.545   c0.271,0.506,0.414,1.077,0.414,1.651V31.5H23.5z"/>
	<g>
		<path style="fill:#4788C7;" d="M34.26,13c0.369,0,0.707,0.202,0.882,0.528l3.503,6.544C38.877,20.506,39,20.996,39,21.488V31H24    V13H34.26 M34.26,12H23v20h17V21.488c0-0.659-0.163-1.307-0.473-1.888l-3.503-6.544C35.676,12.406,34.998,12,34.26,12L34.26,12z"/>
	</g>
</g>
<g>
	<path style="fill:#FFFFFF;" d="M31,15c-1.105,0-2,0.895-2,2v2c0,1.105,0.895,2,2,2h1l2,2h6v-1.512c0-0.659-0.163-1.307-0.473-1.888   L37.064,15H31z"/>
</g>
<g>
	<rect x="1.5" y="6.5" style="fill:#DFF0FE;" width="22" height="25"/>
	<g>
		<path style="fill:#4788C7;" d="M23,7v24H2V7H23 M24,6H1v26h23V6L24,6z"/>
	</g>
</g>
<g>
	<circle style="fill:#B6DCFE;" cx="10" cy="32" r="3.5"/>
	<g>
		<path style="fill:#4788C7;" d="M10,29c1.654,0,3,1.346,3,3c0,1.654-1.346,3-3,3s-3-1.346-3-3C7,30.346,8.346,29,10,29 M10,28    c-2.209,0-4,1.791-4,4s1.791,4,4,4s4-1.791,4-4S12.209,28,10,28L10,28z"/>
	</g>
</g>
<g>
	<g>
		<path style="fill:#4788C7;" d="M34.26,13c0.369,0,0.707,0.202,0.882,0.528l3.503,6.544C38.877,20.506,39,20.996,39,21.488V31H24    V13H34.26 M34.26,12H23v20h17V21.488c0-0.659-0.163-1.307-0.473-1.888l-3.503-6.544C35.676,12.406,34.998,12,34.26,12L34.26,12z"/>
	</g>
</g>
<g>
	<circle style="fill:#B6DCFE;" cx="31" cy="32" r="3.5"/>
	<g>
		<path style="fill:#4788C7;" d="M31,29c1.654,0,3,1.346,3,3s-1.346,3-3,3c-1.654,0-3-1.346-3-3S29.346,29,31,29 M31,28    c-2.209,0-4,1.791-4,4s1.791,4,4,4c2.209,0,4-1.791,4-4S33.209,28,31,28L31,28z"/>
	</g>
</g>
<path style="fill:#4788C7;" d="M12.5,7h-12C0.224,7,0,6.776,0,6.5v0C0,6.224,0.224,6,0.5,6h12C12.776,6,13,6.224,13,6.5v0  C13,6.776,12.776,7,12.5,7z"/>
<rect x="1" y="7" style="fill:#DFF0FE;" width="2" height="20"/>
<path style="fill:#FFFFFF;" d="M39,28h-1.5c-0.828,0-1.5-0.672-1.5-1.5v0c0-0.828,0.672-1.5,1.5-1.5H39V28z"/>
<path style="fill:#4788C7;" d="M10.5,11h-10C0.224,11,0,10.776,0,10.5v0C0,10.224,0.224,10,0.5,10h10c0.276,0,0.5,0.224,0.5,0.5v0  C11,10.776,10.776,11,10.5,11z"/>
<path style="fill:#4788C7;" d="M8.5,15h-8C0.224,15,0,14.776,0,14.5v0C0,14.224,0.224,14,0.5,14h8C8.776,14,9,14.224,9,14.5v0  C9,14.776,8.776,15,8.5,15z"/>
<path style="fill:#4788C7;" d="M6.5,19h-6C0.224,19,0,18.776,0,18.5l0,0C0,18.224,0.224,18,0.5,18h6C6.776,18,7,18.224,7,18.5l0,0  C7,18.776,6.776,19,6.5,19z"/>
<path style="fill:#4788C7;" d="M4.5,23h-4C0.224,23,0,22.776,0,22.5l0,0C0,22.224,0.224,22,0.5,22h4C4.776,22,5,22.224,5,22.5l0,0  C5,22.776,4.776,23,4.5,23z"/>
<path style="fill:#4788C7;" d="M1.5,29L1.5,29C1.775,29,2,28.775,2,28.5v-2C2,26.225,1.775,26,1.5,26h0C1.225,26,1,26.225,1,26.5v2  C1,28.775,1.225,29,1.5,29z"/>
</svg>