<svg xmlns="http://www.w3.org/2000/svg" xmlns:xlink="http://www.w3.org/1999/xlink" version="1.1" id="Layer_1" x="0px" y="0px" viewBox="0 0 40 40" style="enable-background:new 0 0 40 40;" xml:space="preserve" width="40" height="40">
<g>
	<path style="fill:#DFF0FE;" d="M1.5,36.5V14.521L17.982,3.132c0.596-0.412,1.293-0.63,2.018-0.63s1.422,0.218,2.018,0.63   L38.5,14.521V36.5H1.5z"/>
	<g>
		<path style="fill:#4788C7;" d="M20,3.002c0.622,0,1.222,0.187,1.734,0.541L38,14.782V36H2V14.782L18.266,3.543    C18.778,3.189,19.378,3.002,20,3.002 M20,2.002c-0.805,0-1.61,0.239-2.302,0.718L1,14.258V37h38V14.258L22.302,2.72    C21.61,2.242,20.805,2.002,20,2.002L20,2.002z"/>
	</g>
</g>
<path style="fill:#B6DCFE;" d="M25,24H15L2,14.782L18.266,3.543C18.778,3.189,19.378,3.002,20,3.002s1.222,0.187,1.734,0.541  L38,14.782L25,24z"/>
<polygon style="fill:#4788C7;" points="25,23 15,23 2.714,14.289 2,14.782 15,24 25,24 38,14.782 37.286,14.289 "/>
<line style="fill:none;stroke:#4788C7;stroke-width:2;stroke-miterlimit:10;" x1="14" y1="14" x2="26" y2="14"/>
<line style="fill:none;stroke:#4788C7;stroke-width:2;stroke-miterlimit:10;" x1="20" y1="8" x2="20" y2="20"/>
</svg>