<svg xmlns="http://www.w3.org/2000/svg" xmlns:xlink="http://www.w3.org/1999/xlink" version="1.1" id="Layer_1" x="0px" y="0px" viewBox="0 0 40 40" style="enable-background:new 0 0 40 40;" xml:space="preserve" width="40" height="40">
<g>
	<path style="fill:#DFF0FE;" d="M1.5,36.5V14.519l16.482-11.39C18.578,2.718,19.275,2.5,20,2.5s1.422,0.218,2.018,0.629L38.5,14.519   V36.5H1.5z"/>
	<g>
		<path style="fill:#4788C7;" d="M20,3c0.622,0,1.222,0.187,1.734,0.541L38,14.78V36H2V14.78L18.266,3.541    C18.778,3.187,19.378,3,20,3 M20,2c-0.805,0-1.61,0.239-2.302,0.718L1,14.256V37h38V14.256L22.302,2.718    C21.61,2.239,20.805,2,20,2L20,2z"/>
	</g>
</g>
<path style="fill:#B6DCFE;" d="M25,23.998H15L2,14.78L18.266,3.541C18.778,3.187,19.378,3,20,3s1.222,0.187,1.734,0.541L38,14.78  L25,23.998z"/>
<g>
	<polygon style="fill:#98CCFD;" points="15.159,23.498 9.5,19.484 9.5,2.5 30.5,2.5 30.5,19.484 24.841,23.498  "/>
	<g>
		<path style="fill:#4788C7;" d="M30,3v16.227l-5.319,3.771h-9.363L10,19.227V3H30 M31,2H9v17.743c3.075,2.18,6,4.254,6,4.254h10    c0,0,2.925-2.074,6-4.254V2L31,2z"/>
	</g>
</g>
<g>
	<circle style="fill:#FFFFFF;" cx="20" cy="9" r="3"/>
</g>
<g>
	<path style="fill:#FFFFFF;" d="M27.5,21c0-3.314-3.358-6-7.5-6c-4.142,0-7.5,2.686-7.5,6c0,0.474,0.077,0.932,0.209,1.373   C14.068,23.337,15,23.998,15,23.998h10c0,0,0.932-0.661,2.291-1.624C27.423,21.932,27.5,21.474,27.5,21z"/>
</g>
<polygon style="fill:#4788C7;" points="24.542,23 15.348,23 2.917,14.167 2,14.78 15,23.998 25,23.998 38,14.78 37.151,14.197 "/>
</svg>