<svg xmlns="http://www.w3.org/2000/svg" xmlns:xlink="http://www.w3.org/1999/xlink" version="1.1" id="Layer_1" x="0px" y="0px" viewBox="0 0 40 40" style="enable-background:new 0 0 40 40;" xml:space="preserve" width="40" height="40">
<g>
	<path style="fill:#4788C7;" d="M21,12V2c0-0.552-0.448-1-1-1h0c-0.552,0-1,0.448-1,1v10h-5l6,6l6-6H21z"/>
</g>
<g>
	<path style="fill:#4788C7;" d="M32.196,23.513l2.773-9.608c0.153-0.531-0.153-1.085-0.684-1.238l0,0   c-0.531-0.153-1.085,0.153-1.238,0.684l-2.773,9.608l-4.804-1.386L29.572,29L37,24.899L32.196,23.513z"/>
</g>
<g>
	<path style="fill:#4788C7;" d="M7.804,23.513l-2.773-9.608c-0.153-0.531,0.153-1.085,0.684-1.238h0   c0.531-0.153,1.085,0.153,1.238,0.684l2.773,9.608l4.804-1.386L10.428,29L3,24.899L7.804,23.513z"/>
</g>
<g>
	<polygon style="fill:#DFF0FE;" points="1.5,38.5 1.5,29.5 5.5,29.5 5.5,34.5 34.5,34.5 34.5,29.5 38.5,29.5 38.5,38.5  "/>
	<path style="fill:#4788C7;" d="M38,30v5v3H2v-3v-5h3v4v1h1h28h1v-1v-4H38 M39,29h-5v5H6v-5H1v6v3v1h38v-1v-3V29L39,29z"/>
</g>
</svg>