<svg xmlns="http://www.w3.org/2000/svg" xmlns:xlink="http://www.w3.org/1999/xlink" version="1.1" id="Layer_1" x="0px" y="0px" viewBox="0 0 40 40" style="enable-background:new 0 0 40 40;" xml:space="preserve" width="40" height="40">
<g>
	<path style="fill:#4788C7;" d="M35.464,15.05L24.393,3.979c-0.391-0.391-1.024-0.391-1.414,0l0,0c-0.391,0.391-0.391,1.024,0,1.414   L34.05,16.464L30.515,20H39v-8.485L35.464,15.05z"/>
</g>
<g>
	<rect x="1.5" y="3.5" style="fill:#DFF0FE;" width="7" height="35"/>
	<g>
		<path style="fill:#4788C7;" d="M8,4v34H2V4H8 M9,3H1v36h8V3L9,3z"/>
	</g>
</g>
<g>
	<rect x="11.5" y="17.5" style="fill:#DFF0FE;" width="7" height="21"/>
	<g>
		<path style="fill:#4788C7;" d="M18,18v20h-6V18H18 M19,17h-8v22h8V17L19,17z"/>
	</g>
</g>
<g>
	<rect x="21.5" y="24.5" style="fill:#DFF0FE;" width="7" height="14"/>
	<g>
		<path style="fill:#4788C7;" d="M28,25v13h-6V25H28 M29,24h-8v15h8V24L29,24z"/>
	</g>
</g>
<g>
	<rect x="31.5" y="30.5" style="fill:#DFF0FE;" width="7" height="8"/>
	<g>
		<path style="fill:#4788C7;" d="M38,31v7h-6v-7H38 M39,30h-8v9h8V30L39,30z"/>
	</g>
</g>
</svg>