<svg xmlns="http://www.w3.org/2000/svg" xmlns:xlink="http://www.w3.org/1999/xlink" version="1.1" id="Layer_1" x="0px" y="0px" viewBox="0 0 40 40" style="enable-background:new 0 0 40 40;" xml:space="preserve" width="40" height="40">
<g>
	<path style="fill:#B6DCFE;" d="M9.512,26.5c0.262-5.559,4.866-10,10.488-10s10.227,4.441,10.488,10H9.512z"/>
	<g>
		<path style="fill:#4788C7;" d="M20,17c5.176,0,9.447,3.954,9.95,9H10.05C10.553,20.954,14.824,17,20,17 M20,16    c-6.075,0-11,4.925-11,11h22C31,20.925,26.075,16,20,16L20,16z"/>
	</g>
</g>
<g>
	<circle style="fill:#DFF0FE;" cx="20" cy="8" r="6.5"/>
	<path style="fill:#4788C7;" d="M20,2c3.308,0,6,2.692,6,6s-2.692,6-6,6s-6-2.692-6-6S16.692,2,20,2 M20,1c-3.866,0-7,3.134-7,7   s3.134,7,7,7s7-3.134,7-7S23.866,1,20,1L20,1z"/>
</g>
<path style="fill:none;stroke:#4788C7;stroke-miterlimit:10;" d="M5.5,24.179v-2.714c0-3.004,2.425-5.444,5.429-5.462h0"/>
<path style="fill:#4788C7;" d="M10,13.999C9.765,13.999,10.235,13.999,10,13.999c-1.105,0-2,0.895-2,2s0.895,2,2,2  c0.235,0-0.235,0,0,0c1.105,0,2-0.895,2-2S11.105,13.999,10,13.999z"/>
<g>
	<rect x="2.5" y="24.5" style="fill:#DFF0FE;" width="35" height="4"/>
	<g>
		<path style="fill:#4788C7;" d="M37,25v3H3v-3H37 M38,24H2v5h36V24L38,24z"/>
	</g>
</g>
<g>
	<polygon style="fill:#B6DCFE;" points="9.647,38.5 4.798,28.5 35.202,28.5 30.353,38.5  "/>
	<g>
		<path style="fill:#4788C7;" d="M34.404,29l-4.364,9H9.96l-4.364-9H34.404 M36,28H4l5.333,11h21.333L36,28L36,28z"/>
	</g>
</g>
</svg>