<svg xmlns="http://www.w3.org/2000/svg" xmlns:xlink="http://www.w3.org/1999/xlink" version="1.1" id="Layer_1" x="0px" y="0px" viewBox="0 0 40 40" style="enable-background:new 0 0 40 40;" xml:space="preserve" width="40" height="40">
<g>
	<rect x="1.5" y="1.5" style="fill:#98CCFD;" width="37" height="7"/>
	<g>
		<path style="fill:#4788C7;" d="M38,2v6H2V2H38 M39,1H1v8h38V1L39,1z"/>
	</g>
</g>
<g>
	<rect x="1.5" y="10.5" style="fill:#DFF0FE;" width="23" height="28"/>
	<g>
		<path style="fill:#4788C7;" d="M24,11v27H2V11H24 M25,10H1v29h24V10L25,10z"/>
	</g>
</g>
<g>
	<rect x="26.5" y="10.5" style="fill:#B6DCFE;" width="12" height="8"/>
	<g>
		<path style="fill:#4788C7;" d="M38,11v7H27v-7H38 M39,10H26v9h13V10L39,10z"/>
	</g>
</g>
<g>
	<rect x="26.5" y="20.5" style="fill:#B6DCFE;" width="12" height="8"/>
	<g>
		<path style="fill:#4788C7;" d="M38,21v7H27v-7H38 M39,20H26v9h13V20L39,20z"/>
	</g>
</g>
<g>
	<rect x="26.5" y="30.5" style="fill:#B6DCFE;" width="12" height="8"/>
	<g>
		<path style="fill:#4788C7;" d="M38,31v7H27v-7H38 M39,30H26v9h13V30L39,30z"/>
	</g>
</g>
</svg>