<svg xmlns="http://www.w3.org/2000/svg" xmlns:xlink="http://www.w3.org/1999/xlink" version="1.1" id="Layer_1" x="0px" y="0px" viewBox="0 0 40 40" style="enable-background:new 0 0 40 40;" xml:space="preserve" width="40" height="40">
<g>
	<rect x="1.5" y="26.5" style="fill:#98CCFD;" width="12" height="12"/>
	<g>
		<path style="fill:#4788C7;" d="M13,27v11H2V27H13 M14,26H1v13h13V26L14,26z"/>
	</g>
</g>
<g>
	
		<rect x="27.77" y="2.77" transform="matrix(0.7071 -0.7071 0.7071 0.7071 4.2157 25.1777)" style="fill:#FFFFFF;" width="9.46" height="9.46"/>
	<g>
		<path style="fill:#4788C7;" d="M32.5,1.518L38.482,7.5L32.5,13.482L26.518,7.5L32.5,1.518 M32.5,0.103L25.103,7.5l7.397,7.397    L39.897,7.5L32.5,0.103L32.5,0.103z"/>
	</g>
</g>
<g>
	<circle style="fill:#DFF0FE;" cx="7.5" cy="7.5" r="6"/>
	<g>
		<path style="fill:#4788C7;" d="M7.5,2C10.533,2,13,4.467,13,7.5S10.533,13,7.5,13S2,10.533,2,7.5S4.467,2,7.5,2 M7.5,1    C3.91,1,1,3.91,1,7.5S3.91,14,7.5,14S14,11.09,14,7.5S11.09,1,7.5,1L7.5,1z"/>
	</g>
</g>
<g>
	<circle style="fill:#B6DCFE;" cx="32.5" cy="32.5" r="6"/>
	<g>
		<path style="fill:#4788C7;" d="M32.5,27c3.033,0,5.5,2.467,5.5,5.5S35.533,38,32.5,38S27,35.533,27,32.5S29.467,27,32.5,27     M32.5,26c-3.59,0-6.5,2.91-6.5,6.5s2.91,6.5,6.5,6.5s6.5-2.91,6.5-6.5S36.09,26,32.5,26L32.5,26z"/>
	</g>
</g>
<path style="fill:#4788C7;" d="M7.5,17L7.5,17C7.224,17,7,17.224,7,17.5v6C7,23.776,7.224,24,7.5,24h0C7.776,24,8,23.776,8,23.5v-6  C8,17.224,7.776,17,7.5,17z"/>
<polygon style="fill:#4788C7;" points="7.5,15.6 5.5,18 9.5,18 "/>
<path style="fill:#4788C7;" d="M22,7.5L22,7.5C22,7.224,21.776,7,21.5,7h-5C16.224,7,16,7.224,16,7.5v0C16,7.776,16.224,8,16.5,8h5  C21.776,8,22,7.776,22,7.5z"/>
<polygon style="fill:#4788C7;" points="23.4,7.5 21,5.5 21,9.5 "/>
<path style="fill:#4788C7;" d="M32.5,23L32.5,23c0.276,0,0.5-0.224,0.5-0.5v-6c0-0.276-0.224-0.5-0.5-0.5l0,0  c-0.276,0-0.5,0.224-0.5,0.5v6C32,22.776,32.224,23,32.5,23z"/>
<polygon style="fill:#4788C7;" points="32.5,24.4 34.5,22 30.5,22 "/>
</svg>