<svg xmlns="http://www.w3.org/2000/svg" xmlns:xlink="http://www.w3.org/1999/xlink" version="1.1" id="Layer_1" x="0px" y="0px" viewBox="0 0 40 40" style="enable-background:new 0 0 40 40;" xml:space="preserve" width="40" height="40">
<g>
	<path style="fill:#98CCFD;" d="M33.5,15.5v-9H37c0.276,0,0.5,0.224,0.5,0.5v8c0,0.276-0.224,0.5-0.5,0.5H33.5z"/>
	<g>
		<path style="fill:#4788C7;" d="M37,7v8h-3V7H37 M37,6h-4v10h4c0.552,0,1-0.448,1-1V7C38,6.448,37.552,6,37,6L37,6z"/>
	</g>
</g>
<g>
	<path style="fill:#FFFFFF;" d="M33.5,24.5v-9H37c0.276,0,0.5,0.224,0.5,0.5v8c0,0.276-0.224,0.5-0.5,0.5H33.5z"/>
	<g>
		<path style="fill:#4788C7;" d="M37,16v8h-3v-8H37 M37,15h-4v10h4c0.552,0,1-0.448,1-1v-8C38,15.448,37.552,15,37,15L37,15z"/>
	</g>
</g>
<g>
	<path style="fill:#DFF0FE;" d="M33.5,33.5v-9H37c0.276,0,0.5,0.224,0.5,0.5v8c0,0.276-0.224,0.5-0.5,0.5H33.5z"/>
	<g>
		<path style="fill:#4788C7;" d="M37,25v8h-3v-8H37 M37,24h-4v10h4c0.552,0,1-0.448,1-1v-8C38,24.448,37.552,24,37,24L37,24z"/>
	</g>
</g>
<g>
	<path style="fill:#B6DCFE;" d="M5.5,37.5v-35H34c0.276,0,0.5,0.224,0.5,0.5v34c0,0.276-0.224,0.5-0.5,0.5H5.5z"/>
	<g>
		<path style="fill:#4788C7;" d="M34,3v34H6V3H34 M34,2H5v36h29c0.552,0,1-0.448,1-1V3C35,2.448,34.552,2,34,2L34,2z"/>
	</g>
</g>
<g>
	<path style="fill:#98CCFD;" d="M4,37.5c-0.276,0-0.5-0.224-0.5-0.5V3c0-0.276,0.224-0.5,0.5-0.5h3.5v35H4z"/>
	<g>
		<path style="fill:#4788C7;" d="M7,3v34H4V3H7 M8,2H4C3.448,2,3,2.448,3,3v34c0,0.552,0.448,1,1,1h4V2L8,2z"/>
	</g>
</g>
<g>
	<path style="fill:#FFFFFF;" d="M22.631,23.301h-0.049c-0.466,1.392-1.379,2.087-2.738,2.087c-0.867,0-1.567-0.325-2.097-0.976   c-0.531-0.65-0.796-1.526-0.796-2.626c0-1.456,0.364-2.667,1.092-3.631s1.688-1.447,2.879-1.447c0.453,0,0.858,0.125,1.214,0.374   c0.356,0.249,0.586,0.549,0.689,0.898h0.029c0.019-0.181,0.068-0.553,0.146-1.117h1.612c-0.304,3.417-0.456,5.159-0.456,5.223   c0,1.282,0.333,1.922,1,1.922c0.608,0,1.113-0.358,1.515-1.073c0.401-0.715,0.602-1.642,0.602-2.782   c0-1.683-0.542-3.057-1.626-4.121c-1.084-1.065-2.587-1.597-4.51-1.597c-1.845,0-3.372,0.644-4.583,1.932   c-1.21,1.288-1.816,2.9-1.816,4.835c0,1.909,0.583,3.45,1.748,4.621c1.165,1.171,2.734,1.757,4.709,1.757   c1.553,0,2.883-0.266,3.99-0.796v1.495C24.052,28.761,22.637,29,20.942,29c-2.382,0-4.301-0.712-5.757-2.136   C13.728,25.44,13,23.576,13,21.272c0-2.369,0.77-4.333,2.311-5.893c1.54-1.56,3.508-2.34,5.903-2.34   c2.246,0,4.105,0.654,5.578,1.961S29,18.013,29,20.117c0,1.54-0.4,2.804-1.199,3.791c-0.8,0.987-1.775,1.481-2.927,1.481   C23.385,25.388,22.637,24.693,22.631,23.301z M21.087,18.087c-0.712,0-1.286,0.35-1.723,1.049   c-0.437,0.699-0.655,1.569-0.655,2.612c0,0.699,0.147,1.251,0.442,1.655s0.688,0.607,1.18,0.607c0.712,0,1.275-0.367,1.689-1.102   c0.414-0.734,0.621-1.707,0.621-2.917C22.641,18.722,22.123,18.087,21.087,18.087z"/>
</g>
</svg>