<svg xmlns="http://www.w3.org/2000/svg" xmlns:xlink="http://www.w3.org/1999/xlink" version="1.1" id="Layer_1" x="0px" y="0px" viewBox="0 0 40 40" style="enable-background:new 0 0 40 40;" xml:space="preserve" width="40" height="40">
<g>
	<path style="fill:#B6DCFE;" d="M12.316,29.5v-5.786h4.214l0.952,4.76c0.05,0.253-0.014,0.512-0.178,0.712   C17.142,29.386,16.9,29.5,16.643,29.5H12.316z"/>
	<g>
		<path style="fill:#4788C7;" d="M16.121,24.214l0.872,4.359c0.029,0.144-0.034,0.248-0.074,0.296    C16.879,28.918,16.789,29,16.642,29h-3.826v-4.786H16.121 M16.941,23.214h-5.124V30h4.826c0.856,0,1.499-0.784,1.331-1.623    L16.941,23.214L16.941,23.214z"/>
	</g>
</g>
<g>
	<path style="fill:#B6DCFE;" d="M33.5,20.5v-5H36c1.378,0,2.5,1.122,2.5,2.5s-1.122,2.5-2.5,2.5H33.5z"/>
	<g>
		<path style="fill:#4788C7;" d="M36,16c1.103,0,2,0.897,2,2s-0.897,2-2,2h-2v-4H36 M36,15h-3v6h3c1.657,0,3-1.343,3-3    S37.657,15,36,15L36,15z"/>
	</g>
</g>
<g>
	<path style="fill:#98CCFD;" d="M12.115,37.5c-1.159,0-2.128-0.912-2.205-2.077c-0.361-5.438-1.483-9.417-3.338-11.852h7.217   c0.053,5.397,0.974,7.059,1.79,8.53c0.319,0.575,0.62,1.118,0.835,1.861c0.33,1.137-0.299,2.324-1.431,2.701l-2.164,0.721   C12.589,37.461,12.352,37.5,12.115,37.5z"/>
	<g>
		<path style="fill:#4788C7;" d="M13.296,24.071c0.105,5.134,1.026,6.796,1.845,8.273c0.318,0.573,0.592,1.069,0.792,1.758    c0.255,0.878-0.232,1.795-1.109,2.087l-2.163,0.721C12.482,36.97,12.298,37,12.115,37c-0.897,0-1.646-0.707-1.706-1.61    c-0.331-4.98-1.3-8.773-2.887-11.319H13.296 M14.286,23.071H5.475c2.762,2.762,3.65,8.079,3.936,12.385    C9.508,36.931,10.734,38,12.115,38c0.284,0,0.574-0.045,0.862-0.141l2.163-0.721c1.378-0.459,2.158-1.919,1.753-3.314    C16.092,31.063,14.286,31.04,14.286,23.071L14.286,23.071z"/>
	</g>
</g>
<g>
	<path style="fill:#DFF0FE;" d="M34.248,32.5c-3.859-5.014-9.914-8-16.248-8h-3.5v-13H18c6.334,0,12.389-2.986,16.248-8H35.5v29   H34.248z"/>
	<g>
		<path style="fill:#4788C7;" d="M35,4v28l-0.508,0C30.533,26.982,24.406,24,18,24h-3V12h3c6.406,0,12.533-2.982,16.492-8H35 M36,3    h-2l0,0c-3.777,5.036-9.705,8-16,8h-4v14h4c6.295,0,12.223,2.964,16,8l0,0h2V3L36,3z"/>
	</g>
</g>
<g>
	<path style="fill:#98CCFD;" d="M8,24.5c-3.584,0-6.5-2.916-6.5-6.5s2.916-6.5,6.5-6.5h7.5v13H8z"/>
	<g>
		<path style="fill:#4788C7;" d="M15,12v12H8c-3.308,0-6-2.692-6-6c0-3.308,2.692-6,6-6H15 M16,11H8c-3.866,0-7,3.134-7,7v0    c0,3.866,3.134,7,7,7h8V11L16,11z"/>
	</g>
</g>
</svg>