<svg xmlns="http://www.w3.org/2000/svg" xmlns:xlink="http://www.w3.org/1999/xlink" version="1.1" id="Layer_1" x="0px" y="0px" viewBox="0 0 40 40" style="enable-background:new 0 0 40 40;" xml:space="preserve" width="40" height="40">
<g>
	<path style="fill:#DFF0FE;" d="M30.5,26.5c-1.654,0-3-1.346-3-3s1.346-3,3-3c2.49,0,3,0.733,3,1.833   C33.5,24.152,32.045,26.5,30.5,26.5z"/>
	<g>
		<path style="fill:#4788C7;" d="M30.5,21c2.5,0,2.5,0.739,2.5,1.333C33,23.848,31.707,26,30.5,26c-1.379,0-2.5-1.122-2.5-2.5    S29.121,21,30.5,21 M30.5,20c-1.933,0-3.5,1.567-3.5,3.5s1.567,3.5,3.5,3.5s3.5-2.734,3.5-4.667C34,20.4,32.433,20,30.5,20    L30.5,20z"/>
	</g>
</g>
<g>
	<path style="fill:#DFF0FE;" d="M9.5,26.5c-1.545,0-3-2.347-3-4.167c0-1.101,0.51-1.833,3-1.833c1.654,0,3,1.346,3,3   S11.154,26.5,9.5,26.5z"/>
	<g>
		<path style="fill:#4788C7;" d="M9.5,21c1.379,0,2.5,1.122,2.5,2.5S10.879,26,9.5,26C8.293,26,7,23.848,7,22.333    C7,21.739,7,21,9.5,21 M9.5,20C7.567,20,6,20.4,6,22.333C6,24.266,7.567,27,9.5,27s3.5-1.567,3.5-3.5S11.433,20,9.5,20L9.5,20z"/>
	</g>
</g>
<g>
	<g>
		<path style="fill:#FFFFFF;" d="M20,38.5c-1.269,0-2.446-0.527-3.315-1.483l-0.084-0.093l-0.118-0.042    C12.306,35.395,9.5,31.424,9.5,27V12.381c0-2.615,2.127-4.742,4.742-4.742h11.516c2.615,0,4.742,2.127,4.742,4.742V27    c0,4.424-2.806,8.395-6.982,9.882l-0.118,0.042l-0.084,0.093C22.446,37.973,21.269,38.5,20,38.5z"/>
	</g>
	<g>
		<path style="fill:#4788C7;" d="M25.758,8.139c2.339,0,4.242,1.903,4.242,4.242V27c0,4.213-2.672,7.995-6.65,9.412l-0.236,0.084    l-0.168,0.185C22.172,37.531,21.125,38,20,38s-2.172-0.469-2.946-1.32l-0.168-0.185l-0.236-0.084C12.672,34.995,10,31.213,10,27    V12.381c0-2.339,1.903-4.242,4.242-4.242H25.758 M25.758,7.139H14.242C11.347,7.139,9,9.486,9,12.381V27    c0,4.78,3.055,8.837,7.314,10.354C17.229,38.358,18.534,39,20,39s2.771-0.642,3.686-1.647C27.945,35.836,31,31.78,31,27V12.381    C31,9.486,28.653,7.139,25.758,7.139L25.758,7.139z"/>
	</g>
</g>
<g>
	<path style="fill:#B6DCFE;" d="M30.5,24.5v-6.69c0-5.667-4.288-7.265-4.332-7.28l-0.322-0.116l-0.225,0.261   c-0.033,0.038-3.374,3.826-9.692,3.826c-4.146,0-6.429,2.102-6.429,5.917V24.5H9.336C8.772,23.099,6.5,17.173,6.5,12.874   C6.5,7.283,11.176,1.5,19,1.5c4.072,0,6.222,2.04,7.14,3.256l0.15,0.199h0.249c1.806,0,6.961,1.52,6.961,8.271   c0,3.379-2.291,9.772-2.847,11.274H30.5z"/>
	<g>
		<path style="fill:#4788C7;" d="M19,2c3.854,0,5.878,1.916,6.741,3.058l0.3,0.397h0.498c1.676,0,6.461,1.428,6.461,7.772    c0,2.34-1.141,6.202-2,8.777V17.81c0-6.015-4.473-7.683-4.663-7.751l-0.646-0.227l-0.448,0.515C25.113,10.496,21.997,14,15.928,14    C11.461,14,9,16.279,9,20.418v1.756c-0.856-2.452-2-6.291-2-9.301C7,7.602,11.206,2,19,2 M19,1C10.673,1,6,7.13,6,12.873    C6,17.917,9,25,9,25h1c0,0,0-3.194,0-4.582C10,16.154,12.892,15,15.928,15C22.575,15,26,11,26,11s4,1.43,4,6.81    c0,1.527,0,7.19,0,7.19h1c0,0,3-7.808,3-11.774c0-6.983-5.357-8.772-7.461-8.772C26.007,3.752,23.794,1,19,1L19,1z"/>
	</g>
</g>
<circle style="fill:#4788C7;" cx="25.5" cy="24.5" r="1.5"/>
<circle style="fill:#4788C7;" cx="14.5" cy="24.5" r="1.5"/>
<g>
	<path style="fill:#98CCFD;" d="M31,27.5c-0.275,0-0.5-0.224-0.5-0.5v-7c0-0.276,0.225-0.5,0.5-0.5h2c1.379,0,2.5,1.122,2.5,2.5v3   c0,1.378-1.121,2.5-2.5,2.5H31z"/>
	<g>
		<path style="fill:#4788C7;" d="M33,20c1.103,0,2,0.897,2,2v3c0,1.103-0.897,2-2,2h-2v-7H33 M33,19h-2c-0.552,0-1,0.448-1,1v7    c0,0.552,0.448,1,1,1h2c1.657,0,3-1.343,3-3v-3C36,20.343,34.657,19,33,19L33,19z"/>
	</g>
</g>
<g>
	<path style="fill:#FFFFFF;" d="M28.149,32l-2.95,3h2.335c0.913-0.86,1.678-1.872,2.256-3H28.149z"/>
</g>
<path style="fill:none;stroke:#4788C7;stroke-miterlimit:10;" d="M21.286,33.5h8.143c2.249,0,4.071-1.823,4.071-4.071V27.5"/>
<path style="fill:#4788C7;" d="M20.5,35h-1c-0.828,0-1.5-0.672-1.5-1.5l0,0c0-0.828,0.672-1.5,1.5-1.5h1c0.828,0,1.5,0.672,1.5,1.5  l0,0C22,34.328,21.328,35,20.5,35z"/>
</svg>