<svg xmlns="http://www.w3.org/2000/svg" xmlns:xlink="http://www.w3.org/1999/xlink" version="1.1" id="Layer_1" x="0px" y="0px" viewBox="0 0 40 40" style="enable-background:new 0 0 40 40;" xml:space="preserve" width="40" height="40">
<g>
	<path style="fill:#98CCFD;" d="M30.5,35.5v-0.274c0.61-0.353,1-1.008,1-1.726c0-1.103-0.897-2-2-2s-2,0.897-2,2v2h-15v-2   c0-1.103-0.897-2-2-2s-2,0.897-2,2c0,0.718,0.39,1.373,1,1.726V35.5h-8v-31h37v31H30.5z"/>
	<g>
		<path style="fill:#4788C7;" d="M38,5v30h-6.505C31.815,34.576,32,34.053,32,33.5c0-1.379-1.121-2.5-2.5-2.5S27,32.121,27,33.5V35    H13v-1.5c0-1.379-1.121-2.5-2.5-2.5S8,32.121,8,33.5c0,0.553,0.185,1.076,0.505,1.5H2V5H38 M39,4H1v32h9v-1.092    c-0.581-0.207-1-0.756-1-1.408c0-0.828,0.672-1.5,1.5-1.5s1.5,0.672,1.5,1.5V36h16v-2.5c0-0.828,0.672-1.5,1.5-1.5    s1.5,0.672,1.5,1.5c0,0.652-0.419,1.202-1,1.408V36h9V4L39,4z"/>
	</g>
</g>
<g>
	<circle style="fill:#FFFFFF;" cx="20" cy="16" r="4"/>
</g>
<g>
	<path style="fill:#FFFFFF;" d="M26,27H14c0-3.314,2.686-6,6-6S26,23.686,26,27z"/>
</g>
</svg>