<svg xmlns="http://www.w3.org/2000/svg" xmlns:xlink="http://www.w3.org/1999/xlink" version="1.1" id="Layer_1" x="0px" y="0px" viewBox="0 0 40 40" style="enable-background:new 0 0 40 40;" xml:space="preserve" width="40" height="40">
<g>
	<g>
		<path style="fill:#4788C7;" d="M25,3c1.103,0,2,0.897,2,2v3H13V5c0-1.103,0.897-2,2-2H25 M25,2H15c-1.657,0-3,1.343-3,3v4h16V5    C28,3.343,26.657,2,25,2L25,2z"/>
	</g>
</g>
<g>
	<path style="fill:#B6DCFE;" d="M4,35.5c-1.379,0-2.5-1.122-2.5-2.5V9c0-1.378,1.121-2.5,2.5-2.5h32c1.379,0,2.5,1.122,2.5,2.5v24   c0,1.378-1.121,2.5-2.5,2.5H4z"/>
	<g>
		<path style="fill:#4788C7;" d="M36,7c1.103,0,2,0.897,2,2v24c0,1.103-0.897,2-2,2H4c-1.103,0-2-0.897-2-2V9c0-1.103,0.897-2,2-2    H36 M36,6H4C2.343,6,1,7.343,1,9v24c0,1.657,1.343,3,3,3h32c1.657,0,3-1.343,3-3V9C39,7.343,37.657,6,36,6L36,6z"/>
	</g>
</g>
<path style="fill:#4788C7;" d="M29,7h-3V6.5C26,5.672,26.672,5,27.5,5h0C28.328,5,29,5.672,29,6.5V7z"/>
<path style="fill:#4788C7;" d="M14,7h-3V6.5C11,5.672,11.672,5,12.5,5h0C13.328,5,14,5.672,14,6.5V7z"/>
<rect x="32" y="35" style="fill:#4788C7;" width="3" height="2"/>
<rect x="5" y="35" style="fill:#4788C7;" width="3" height="2"/>
<path style="fill:#DFF0FE;" d="M23.5,31L23.5,31c-0.276,0-0.5-0.224-0.5-0.5v-19c0-0.276,0.224-0.5,0.5-0.5h0  c0.276,0,0.5,0.224,0.5,0.5v19C24,30.776,23.776,31,23.5,31z"/>
<path style="fill:#DFF0FE;" d="M16.5,31L16.5,31c-0.276,0-0.5-0.224-0.5-0.5v-19c0-0.276,0.224-0.5,0.5-0.5h0  c0.276,0,0.5,0.224,0.5,0.5v19C17,30.776,16.776,31,16.5,31z"/>
<path style="fill:#DFF0FE;" d="M9.5,31L9.5,31C9.224,31,9,30.776,9,30.5v-19C9,11.224,9.224,11,9.5,11h0c0.276,0,0.5,0.224,0.5,0.5  v19C10,30.776,9.776,31,9.5,31z"/>
<path style="fill:#DFF0FE;" d="M30.5,31L30.5,31c-0.276,0-0.5-0.224-0.5-0.5v-19c0-0.276,0.224-0.5,0.5-0.5h0  c0.276,0,0.5,0.224,0.5,0.5v19C31,30.776,30.776,31,30.5,31z"/>
</svg>