<svg xmlns="http://www.w3.org/2000/svg" xmlns:xlink="http://www.w3.org/1999/xlink" version="1.1" id="Layer_1" x="0px" y="0px" viewBox="0 0 40 40" style="enable-background:new 0 0 40 40;" xml:space="preserve" width="40" height="40">
<g>
	<path style="fill:#DFF0FE;" d="M20,38.5C9.799,38.5,1.5,30.201,1.5,20S9.799,1.5,20,1.5S38.5,9.799,38.5,20S30.201,38.5,20,38.5z"/>
	<g>
		<path style="fill:#4788C7;" d="M20,2c9.925,0,18,8.075,18,18s-8.075,18-18,18S2,29.925,2,20S10.075,2,20,2 M20,1    C9.507,1,1,9.507,1,20s8.507,19,19,19s19-8.507,19-19S30.493,1,20,1L20,1z"/>
	</g>
</g>
<g>
	<path style="fill:#98CCFD;" d="M23.5,1.836l0.611,0.14c2.227,0.508,4.301,1.4,6.167,2.652L30.5,4.777v30.446l-0.221,0.148   c-1.866,1.252-3.941,2.145-6.167,2.652l-0.611,0.14V1.836z"/>
	<path style="fill:#4788C7;" d="M24,2.464c2.174,0.496,4.203,1.375,6,2.58v29.913c-1.797,1.206-3.826,2.084-6,2.58V2.464 M23,1.21   v1.254v35.073v1.254l1.222-0.279c2.285-0.521,4.417-1.438,6.335-2.725L31,35.49v-0.533V5.044V4.51l-0.443-0.297   c-1.918-1.287-4.049-2.203-6.335-2.725L23,1.21L23,1.21z"/>
</g>
<g>
	<path style="fill:#FFFFFF;" d="M20,38.5c-2.588,0-5.109-0.54-7.5-1.606V28.55l-0.199-0.15c-3.358-2.527-5.573-7.734-2.501-13.193   c0.653-1.161,1.633-2.121,2.834-2.776c1.74-0.95,3.533-1.431,5.331-1.431c4.675,0,8.676,3.338,9.514,7.936l0.026,0.146l1.996,2.117   v3.492l-2,1V29c0,1.378-1.122,2.5-2.5,2.5h-1.5v6.662C22.333,38.386,21.157,38.5,20,38.5z"/>
	<g>
		<path style="fill:#4788C7;" d="M17.964,11.5c4.434,0,8.228,3.165,9.022,7.526l0.053,0.291l0.203,0.216L29,21.397v2.985    l-1.447,0.724L27,25.382V26v3c0,1.103-0.897,2-2,2h-1h-1v1v5.744C21.998,37.914,20.992,38,20,38c-2.41,0-4.762-0.482-7-1.433    v-7.767V28.3L12.601,28c-3.296-2.481-5.306-7.323-2.366-12.548c0.607-1.079,1.519-1.972,2.638-2.582    C14.539,11.961,16.251,11.5,17.964,11.5 M17.964,10.5c-1.786,0-3.679,0.46-5.57,1.492c-1.266,0.691-2.323,1.713-3.03,2.97    C6.279,20.445,8.178,25.922,12,28.799v8.416C14.434,38.349,17.138,39,20,39c1.373,0,2.709-0.153,4-0.43V32h1c1.657,0,3-1.343,3-3    v-3l2-1v-4l-2.03-2.153C27.106,14.101,22.959,10.5,17.964,10.5L17.964,10.5z"/>
	</g>
</g>
<polygon style="fill:#FFFFFF;" points="30,22.455 28.643,21.019 28.643,24.56 30,23.876 "/>
<g>
	<path style="fill:#B6DCFE;" d="M12.258,31.365c-0.502-1.354-1.381-2.514-2.303-3.731C8.256,25.394,6.5,23.076,6.5,19.013   C6.5,13.118,11.184,8.5,17.163,8.5c4.657,0,7.686,2.984,8.325,3.676C25.276,13.71,22.376,15.5,20,15.5h-0.5v6h-0.241   c-0.428-0.572-1.664-2-3.33-2c-1.662,0-3.429,1.227-3.429,3.5c0,2.334,2.122,3.374,3,3.704v2.057L12.258,31.365z"/>
	<g>
		<path style="fill:#4788C7;" d="M17.162,9c4.116,0,6.909,2.449,7.777,3.326C24.53,13.49,22.114,15,20,15h-1v1v4.448    C18.315,19.769,17.247,19,15.929,19C14.024,19,12,20.402,12,23c0,2.377,1.908,3.557,3,4.038v1.483l-2.537,2.038    c-0.536-1.15-1.307-2.167-2.11-3.227C8.705,25.157,7,22.908,7,19.013C7,13.398,11.464,9,17.162,9 M17.162,8    C10.962,8,6,12.812,6,19.013c0,6.893,4.969,9.112,6,13.201L16,29v-2.656c0,0-3-0.813-3-3.344c0-1.906,1.43-3,2.929-3    C17.719,20,19,22,19,22h1v-6c2.739,0,6-2.103,6-4C26,12,22.719,8,17.162,8L17.162,8z"/>
	</g>
</g>
<circle style="fill:#4788C7;" cx="24.429" cy="21" r="1"/>
</svg>