<svg xmlns="http://www.w3.org/2000/svg" xmlns:xlink="http://www.w3.org/1999/xlink" version="1.1" id="Layer_1" x="0px" y="0px" viewBox="0 0 40 40" style="enable-background:new 0 0 40 40;" xml:space="preserve" width="40" height="40">
<g>
	<rect x="4.5" y="1.5" style="fill:#DFF0FE;" width="33" height="24"/>
	<path style="fill:#4788C7;" d="M37,2v23H5V2H37 M38,1H4v25h34V1L38,1z"/>
</g>
<g>
	<path style="fill:#DFF0FE;" d="M3.5,27.5v-3H37c0.827,0,1.5,0.673,1.5,1.5v1.5H3.5z"/>
	<path style="fill:#4788C7;" d="M37,25c0.551,0,1,0.449,1,1v1H4v-2H37 M37,24H3v4h36v-2C39,24.895,38.105,24,37,24L37,24z"/>
</g>
<g>
	<rect x="7" y="4" style="fill:#98CCFD;" width="28" height="20"/>
</g>
<g>
	<circle style="fill:#FFFFFF;" cx="5.5" cy="10.5" r="4"/>
	<g>
		<path style="fill:#4788C7;" d="M5.5,7C7.43,7,9,8.57,9,10.5S7.43,14,5.5,14S2,12.43,2,10.5S3.57,7,5.5,7 M5.5,6    C3.015,6,1,8.015,1,10.5S3.015,15,5.5,15s4.5-2.015,4.5-4.5S7.985,6,5.5,6L5.5,6z"/>
	</g>
</g>
<g>
	<path style="fill:#FFFFFF;" d="M17.5,20.5v-4h2c1.103,0,2,0.897,2,2s-0.897,2-2,2H17.5z"/>
	<g>
		<path style="fill:#4788C7;" d="M19.5,17c0.827,0,1.5,0.673,1.5,1.5S20.327,20,19.5,20H18v-3H19.5 M19.5,16H17v5h2.5    c1.381,0,2.5-1.119,2.5-2.5S20.881,16,19.5,16L19.5,16z"/>
	</g>
</g>
<g>
	<path style="fill:#B6DCFE;" d="M1.5,34.5V20c0-1.93,1.57-3.5,3.5-3.5h12.5v4h-8v14H1.5z"/>
	<g>
		<path style="fill:#4788C7;" d="M17,17v3h-7H9v1v13H2V20c0-1.654,1.346-3,3-3H17 M18,16H5c-2.209,0-4,1.791-4,4v15h9V21h8V16L18,16    z"/>
	</g>
</g>
<g>
	<circle style="fill:#FFFFFF;" cx="5" cy="35" r="3.5"/>
	<g>
		<path style="fill:#4788C7;" d="M5,32c1.654,0,3,1.346,3,3s-1.346,3-3,3s-3-1.346-3-3S3.346,32,5,32 M5,31c-2.209,0-4,1.791-4,4    s1.791,4,4,4s4-1.791,4-4S7.209,31,5,31L5,31z"/>
	</g>
</g>
<g>
	<circle style="fill:#FFFFFF;" cx="12" cy="35" r="3.5"/>
	<g>
		<path style="fill:#4788C7;" d="M12,32c1.654,0,3,1.346,3,3s-1.346,3-3,3s-3-1.346-3-3S10.346,32,12,32 M12,31    c-2.209,0-4,1.791-4,4s1.791,4,4,4s4-1.791,4-4S14.209,31,12,31L12,31z"/>
	</g>
</g>
<g>
	<circle style="fill:#FFFFFF;" cx="19" cy="35" r="3.5"/>
	<g>
		<path style="fill:#4788C7;" d="M19,32c1.654,0,3,1.346,3,3s-1.346,3-3,3s-3-1.346-3-3S17.346,32,19,32 M19,31    c-2.209,0-4,1.791-4,4s1.791,4,4,4s4-1.791,4-4S21.209,31,19,31L19,31z"/>
	</g>
</g>
<g>
	<circle style="fill:#FFFFFF;" cx="26" cy="35" r="3.5"/>
	<g>
		<path style="fill:#4788C7;" d="M26,32c1.654,0,3,1.346,3,3s-1.346,3-3,3s-3-1.346-3-3S24.346,32,26,32 M26,31    c-2.209,0-4,1.791-4,4s1.791,4,4,4s4-1.791,4-4S28.209,31,26,31L26,31z"/>
	</g>
</g>
<g>
	<circle style="fill:#FFFFFF;" cx="33" cy="35" r="3.5"/>
	<g>
		<path style="fill:#4788C7;" d="M33,32c1.654,0,3,1.346,3,3s-1.346,3-3,3s-3-1.346-3-3S31.346,32,33,32 M33,31    c-2.209,0-4,1.791-4,4s1.791,4,4,4s4-1.791,4-4S35.209,31,33,31L33,31z"/>
	</g>
</g>
</svg>