<svg xmlns="http://www.w3.org/2000/svg" xmlns:xlink="http://www.w3.org/1999/xlink" version="1.1" id="Layer_1" x="0px" y="0px" viewBox="0 0 40 40" style="enable-background:new 0 0 40 40;" xml:space="preserve" width="40" height="40">
<g>
	<polygon style="fill:#FFFFFF;" points="6.5,37.5 6.5,2.5 24.793,2.5 33.5,11.207 33.5,37.5  "/>
	<g>
		<path style="fill:#4788C7;" d="M24.586,3L33,11.414V37H7V3H24.586 M25,2H6v36h28V11L25,2L25,2z"/>
	</g>
</g>
<g>
	<path style="fill:#DFF0FE;" d="M17.476,28.5c-0.158-1.573-1.043-2.659-1.903-3.713C14.554,23.537,13.5,22.244,13.5,20   c0-3.584,2.916-6.5,6.5-6.5s6.5,2.916,6.5,6.5c0,2.321-1.071,3.631-2.107,4.899c-0.841,1.029-1.708,2.089-1.867,3.601H17.476z"/>
	<path style="fill:#4788C7;" d="M20,14c3.308,0,6,2.692,6,6c0,2.142-0.969,3.328-1.994,4.582c-0.808,0.988-1.638,2.004-1.912,3.418   H17.91c-0.273-1.472-1.123-2.515-1.95-3.529C14.952,23.234,14,22.066,14,20C14,16.692,16.692,14,20,14 M20,13c-3.866,0-7,3.134-7,7   c0,4.563,4,5.438,4,9c1.156,0,4.688,0,6,0c0-3.469,4-4.344,4-9C27,16.134,23.866,13,20,13L20,13z"/>
</g>
<g>
	<polygon style="fill:#DFF0FE;" points="24.5,11.5 24.5,2.5 24.793,2.5 33.5,11.207 33.5,11.5  "/>
	<g>
		<path style="fill:#4788C7;" d="M25,3.414L32.586,11H25V3.414 M25,2h-1v10h10v-1L25,2L25,2z"/>
	</g>
</g>
<g>
	<circle style="fill:#B6DCFE;" cx="20" cy="32" r="1.5"/>
	<path style="fill:#4788C7;" d="M20,31c0.551,0,1,0.449,1,1s-0.449,1-1,1s-1-0.449-1-1S19.449,31,20,31 M20,30c-1.105,0-2,0.895-2,2   s0.895,2,2,2s2-0.895,2-2S21.105,30,20,30L20,30z"/>
</g>
<g>
	<path style="fill:#B6DCFE;" d="M18.5,32.5c-0.551,0-1-0.449-1-1v-3h5v3c0,0.551-0.449,1-1,1H18.5z"/>
	<path style="fill:#4788C7;" d="M22,29v2.5c0,0.271-0.229,0.5-0.5,0.5h-3c-0.271,0-0.5-0.229-0.5-0.5V29H22 M23,28h-6v3.5   c0,0.825,0.675,1.5,1.5,1.5h3c0.825,0,1.5-0.675,1.5-1.5V28L23,28z"/>
</g>
<g>
	<path style="fill:#4788C7;" d="M21.5,20c0.077,0,0.226,0.019,0.354,0.146c0.195,0.195,0.195,0.512,0,0.707l-0.561,0.561L21,21.707   v0.414V28h-2v-5.879v-0.414l-0.293-0.293l-0.561-0.561c-0.195-0.195-0.195-0.512,0-0.707C18.274,20.019,18.423,20,18.5,20   s0.226,0.019,0.354,0.146l0.439,0.439L20,21.293l0.707-0.707l0.439-0.439C21.274,20.019,21.423,20,21.5,20 M21.5,19   c-0.384,0-0.768,0.146-1.061,0.439L20,19.879l-0.439-0.439C19.268,19.146,18.884,19,18.5,19s-0.768,0.146-1.061,0.439   c-0.586,0.586-0.586,1.536,0,2.121L18,22.121V29h4v-6.879l0.561-0.561c0.586-0.586,0.586-1.536,0-2.121   C22.268,19.146,21.884,19,21.5,19L21.5,19z"/>
</g>
</svg>