<svg xmlns="http://www.w3.org/2000/svg" xmlns:xlink="http://www.w3.org/1999/xlink" version="1.1" id="Layer_1" x="0px" y="0px" viewBox="0 0 40 40" style="enable-background:new 0 0 40 40;" xml:space="preserve" width="40" height="40">
<g>
	<path style="fill:#98CCFD;" d="M22.5,31.5v-1.577c0-3.542,2.804-6.423,6.25-6.423h4.5c3.446,0,6.25,2.881,6.25,6.423V31.5H22.5z"/>
	<g>
		<path style="fill:#4788C7;" d="M33.25,24c3.171,0,5.75,2.657,5.75,5.923V31H23v-1.077C23,26.657,25.579,24,28.75,24H33.25     M33.25,23h-4.5C25.022,23,22,26.1,22,29.923c0,0,0,1.353,0,2.077h18c0-0.724,0-2.077,0-2.077C40,26.1,36.978,23,33.25,23    L33.25,23z"/>
	</g>
</g>
<g>
	<path style="fill:#FFFFFF;" d="M31,25.5c-1.394,0-2.118-0.978-2.313-1.287v-2.776h4.625v2.776C33.118,24.525,32.397,25.5,31,25.5z"/>
	<g>
		<path style="fill:#4788C7;" d="M32.812,21.938v2.123C32.587,24.37,32.004,25,31,25c-1.006,0-1.587-0.629-1.813-0.939v-2.124    H32.812 M33.812,20.938h-5.625v3.41c0,0,0.839,1.653,2.813,1.653s2.812-1.653,2.812-1.653V20.938L33.812,20.938z"/>
	</g>
</g>
<g>
	<g>
		<path style="fill:#DFF0FE;" d="M34.571,19.163c-0.512,0-0.928-0.459-0.928-1.024s0.417-1.024,0.928-1.024    c0.929,0,0.929,0.262,0.929,0.516C35.5,18.304,34.979,19.163,34.571,19.163z M27.429,19.163c-0.408,0-0.929-0.859-0.929-1.532    c0-0.254,0-0.516,0.929-0.516c0.512,0,0.928,0.459,0.928,1.024S27.94,19.163,27.429,19.163z"/>
	</g>
	<g>
		<path style="fill:#4788C7;" d="M34.571,17.615c0.222,0,0.354,0.018,0.428,0.034c-0.008,0.398-0.287,0.902-0.466,1.012    c-0.216-0.024-0.391-0.253-0.391-0.522C34.143,17.855,34.339,17.615,34.571,17.615 M27.429,17.615c0.232,0,0.429,0.24,0.429,0.524    c0,0.268-0.175,0.498-0.391,0.522c-0.179-0.109-0.458-0.614-0.466-1.012C27.074,17.633,27.206,17.615,27.429,17.615     M34.571,16.615c-0.789,0-1.429,0.682-1.429,1.524c0,0.842,0.64,1.524,1.429,1.524c0.789,0,1.429-1.19,1.429-2.032    C36,16.79,35.36,16.615,34.571,16.615L34.571,16.615z M27.429,16.615C26.64,16.615,26,16.79,26,17.631    c0,0.842,0.64,2.032,1.429,2.032c0.789,0,1.429-0.682,1.429-1.524C28.857,17.298,28.218,16.615,27.429,16.615L27.429,16.615z"/>
	</g>
</g>
<g>
	<g>
		<path style="fill:#FFFFFF;" d="M31,22.927c-0.342,0-0.596-0.15-0.749-0.276l-0.084-0.069l-0.105-0.028    c-1.599-0.427-2.716-1.872-2.716-3.515V14.21c0-0.816,0.664-1.479,1.479-1.479h4.349c0.816,0,1.479,0.664,1.479,1.479v4.828    c0,1.643-1.117,3.088-2.716,3.515l-0.105,0.028l-0.084,0.069C31.596,22.777,31.342,22.927,31,22.927z"/>
	</g>
	<g>
		<path style="fill:#4788C7;" d="M33.174,13.231c0.54,0,0.98,0.439,0.98,0.98v4.828c0,1.417-0.964,2.664-2.345,3.032l-0.21,0.056    l-0.168,0.138c-0.09,0.074-0.237,0.162-0.431,0.162s-0.342-0.088-0.431-0.162l-0.168-0.138l-0.21-0.056    c-1.38-0.368-2.345-1.615-2.345-3.032V14.21c0-0.54,0.439-0.98,0.98-0.98H33.174 M33.174,12.231h-4.348    c-1.093,0-1.98,0.886-1.98,1.98v4.828c0,1.923,1.313,3.525,3.087,3.998c0.292,0.24,0.66,0.39,1.067,0.39s0.776-0.15,1.067-0.39    c1.774-0.473,3.087-2.075,3.087-3.998V14.21C35.154,13.117,34.268,12.231,33.174,12.231L33.174,12.231z"/>
	</g>
</g>
<g>
	<path style="fill:#98CCFD;" d="M27.389,17.767c-0.354-0.78-0.889-2.114-0.889-3.038c0-2.776,1.949-4.229,3.875-4.229   c2.083,0,2.568,0.989,2.588,1.031l0.115,0.247l0.275,0.047c0.503,0.068,2.147,0.47,2.147,2.753c0,0.624-0.488,2.029-0.875,3.03   v-0.006c0-1.93-1.177-2.991-1.227-3.036l-0.417-0.368l-0.322,0.454c-0.039,0.054-1.012,1.361-3.106,1.361   C28.546,16.013,27.519,16.23,27.389,17.767z"/>
	<g>
		<path style="fill:#4788C7;" d="M30.375,11c1.703,0,2.118,0.713,2.122,0.713l0,0l0.156,0.521l0.632,0.086    C33.801,12.391,35,12.752,35,14.578c0,0.238-0.097,0.655-0.245,1.143c-0.401-0.968-0.989-1.497-1.026-1.53l-0.822-0.708    l-0.649,0.87c-0.035,0.047-0.887,1.16-2.706,1.16c-0.456,0-1.552,0-2.192,0.846C27.158,15.777,27,15.177,27,14.728    C27,12.281,28.698,11,30.375,11 M30.375,10C28.154,10,26,11.72,26,14.728c0,1.514,1.25,3.904,1.25,3.904h0.625c0,0,0-0.03,0-0.523    c0-1.355,0.598-1.596,1.678-1.596c2.402,0,3.515-1.572,3.515-1.572s1.057,0.934,1.057,2.661c0,0.543,0,1.031,0,1.031h0.625    c0,0,1.25-2.934,1.25-4.055c0-2.294-1.524-3.104-2.58-3.248C33.42,11.33,32.868,10,30.375,10L30.375,10z"/>
	</g>
</g>
<g>
	<path style="fill:#98CCFD;" d="M0.5,31.5v-1.577c0-3.542,2.804-6.423,6.25-6.423h4.5c3.446,0,6.25,2.881,6.25,6.423V31.5H0.5z"/>
	<g>
		<path style="fill:#4788C7;" d="M11.25,24c3.171,0,5.75,2.657,5.75,5.923V31H1v-1.077C1,26.657,3.579,24,6.75,24H11.25 M11.25,23    h-4.5C3.022,23,0,26.1,0,29.923c0,0,0,1.353,0,2.077h18c0-0.724,0-2.077,0-2.077C18,26.1,14.978,23,11.25,23L11.25,23z"/>
	</g>
</g>
<g>
	<path style="fill:#FFFFFF;" d="M9,25.5c-1.394,0-2.118-0.978-2.313-1.287v-2.776h4.625v2.776C11.118,24.525,10.397,25.5,9,25.5z"/>
	<g>
		<path style="fill:#4788C7;" d="M10.812,21.938v2.123C10.584,24.375,10.003,25,9,25c-1.006,0-1.587-0.629-1.813-0.939v-2.124    H10.812 M11.812,20.938H6.187v3.41C6.187,24.347,7.026,26,9,26s2.812-1.653,2.812-1.653V20.938L11.812,20.938z"/>
	</g>
</g>
<g>
	<g>
		<path style="fill:#DFF0FE;" d="M12.571,19.163c-0.512,0-0.928-0.459-0.928-1.024s0.417-1.024,0.928-1.024    c0.929,0,0.929,0.262,0.929,0.516C13.5,18.304,12.979,19.163,12.571,19.163z M5.429,19.163c-0.408,0-0.929-0.859-0.929-1.532    c0-0.254,0-0.516,0.929-0.516c0.512,0,0.928,0.459,0.928,1.024S5.94,19.163,5.429,19.163z"/>
	</g>
	<g>
		<path style="fill:#4788C7;" d="M12.571,17.615c0.222,0,0.354,0.018,0.428,0.034c-0.008,0.398-0.287,0.902-0.466,1.012    c-0.215-0.024-0.391-0.253-0.391-0.522C12.143,17.855,12.339,17.615,12.571,17.615 M5.429,17.615c0.232,0,0.429,0.24,0.429,0.524    c0,0.268-0.175,0.498-0.391,0.522C5.288,18.551,5.008,18.047,5,17.649C5.074,17.633,5.206,17.615,5.429,17.615 M12.571,16.615    c-0.789,0-1.429,0.682-1.429,1.524c0,0.842,0.64,1.524,1.429,1.524c0.789,0,1.429-1.19,1.429-2.032    C14,16.79,13.36,16.615,12.571,16.615L12.571,16.615z M5.429,16.615C4.64,16.615,4,16.79,4,17.631c0,0.842,0.64,2.032,1.429,2.032    c0.789,0,1.429-0.682,1.429-1.524C6.857,17.298,6.218,16.615,5.429,16.615L5.429,16.615z"/>
	</g>
</g>
<g>
	<g>
		<path style="fill:#FFFFFF;" d="M9,22.927c-0.342,0-0.596-0.15-0.749-0.276l-0.084-0.069l-0.105-0.028    c-1.599-0.427-2.716-1.872-2.716-3.515V14.21c0-0.816,0.664-1.479,1.479-1.479h4.349c0.816,0,1.479,0.664,1.479,1.479v4.828    c0,1.643-1.117,3.088-2.716,3.515l-0.105,0.028l-0.084,0.069C9.596,22.777,9.342,22.927,9,22.927z"/>
	</g>
	<g>
		<path style="fill:#4788C7;" d="M11.174,13.231c0.54,0,0.98,0.439,0.98,0.98v4.828c0,1.417-0.964,2.664-2.345,3.032l-0.21,0.056    l-0.168,0.138C9.342,22.339,9.194,22.427,9,22.427s-0.342-0.088-0.431-0.162l-0.168-0.138l-0.21-0.056    c-1.381-0.368-2.345-1.615-2.345-3.032V14.21c0-0.54,0.439-0.98,0.98-0.98H11.174 M11.174,12.231H6.826    c-1.093,0-1.98,0.886-1.98,1.98v4.828c0,1.923,1.313,3.525,3.087,3.998c0.292,0.24,0.66,0.39,1.067,0.39s0.776-0.15,1.067-0.39    c1.774-0.473,3.087-2.075,3.087-3.998V14.21C13.154,13.117,12.268,12.231,11.174,12.231L11.174,12.231z"/>
	</g>
</g>
<g>
	<path style="fill:#98CCFD;" d="M5.389,17.767C5.035,16.986,4.5,15.652,4.5,14.729c0-2.776,1.949-4.229,3.875-4.229   c2.083,0,2.568,0.989,2.588,1.031l0.115,0.247l0.275,0.047c0.503,0.068,2.147,0.47,2.147,2.753c0,0.624-0.488,2.029-0.875,3.03   v-0.006c0-1.93-1.177-2.991-1.227-3.036l-0.417-0.368l-0.322,0.454c-0.039,0.054-1.012,1.361-3.106,1.361   C6.546,16.013,5.519,16.23,5.389,17.767z"/>
	<g>
		<path style="fill:#4788C7;" d="M8.375,11c1.703,0,2.118,0.713,2.122,0.713l0,0l0.156,0.521l0.632,0.086    C11.801,12.391,13,12.752,13,14.578c0,0.238-0.097,0.655-0.245,1.143c-0.401-0.968-0.989-1.497-1.026-1.53l-0.822-0.708    l-0.649,0.87c-0.035,0.047-0.887,1.16-2.706,1.16c-0.456,0-1.552,0-2.192,0.846C5.158,15.777,5,15.177,5,14.728    C5,12.281,6.698,11,8.375,11 M8.375,10C6.154,10,4,11.72,4,14.728c0,1.514,1.25,3.904,1.25,3.904h0.625c0,0,0-0.03,0-0.523    c0-1.355,0.598-1.596,1.678-1.596c2.402,0,3.515-1.572,3.515-1.572s1.057,0.934,1.057,2.661c0,0.543,0,1.031,0,1.031h0.625    c0,0,1.25-2.934,1.25-4.055c0-2.294-1.524-3.104-2.58-3.248C11.42,11.33,10.868,10,8.375,10L8.375,10z"/>
	</g>
</g>
<g>
	<path style="fill:#B6DCFE;" d="M7.5,36.5V34c0-5.238,4.149-9.5,9.25-9.5h6.5c5.101,0,9.25,4.262,9.25,9.5v2.5H7.5z"/>
	<g>
		<path style="fill:#4788C7;" d="M23.25,25c4.825,0,8.75,4.037,8.75,9v2H8v-2c0-4.963,3.925-9,8.75-9H23.25 M23.25,24h-6.5    C11.365,24,7,28.477,7,34c0,0,0,1.955,0,3h26c0-1.045,0-3,0-3C33,28.477,28.635,24,23.25,24L23.25,24z"/>
	</g>
</g>
<g>
	<path style="fill:#FFFFFF;" d="M20,26.875c-2.204,0-3.314-1.607-3.563-2.019v-4.294h7.125v4.295   C23.312,25.278,22.214,26.875,20,26.875z"/>
	<g>
		<path style="fill:#4788C7;" d="M23.062,21.063v3.652c-0.305,0.463-1.269,1.661-3.062,1.661c-1.789,0-2.756-1.198-3.063-1.662    v-3.651H23.062 M24.062,20.063h-8.125v4.925c0,0,1.212,2.387,4.063,2.387s4.062-2.387,4.062-2.387V20.063L24.062,20.063z"/>
	</g>
</g>
<g>
	<g>
		<path style="fill:#B6DCFE;" d="M25.357,18.071c-0.906,0-1.643-0.801-1.643-1.786s0.737-1.786,1.643-1.786    c1.518,0,1.643,0.484,1.643,1.024C27,16.589,26.172,18.071,25.357,18.071z M14.643,18.071c-0.815,0-1.643-1.482-1.643-2.547    c0-0.54,0.125-1.024,1.643-1.024c0.906,0,1.643,0.801,1.643,1.786S15.549,18.071,14.643,18.071z"/>
	</g>
	<g>
		<path style="fill:#4788C7;" d="M25.357,15c1.143,0,1.143,0.231,1.143,0.524c0,0.963-0.746,2.048-1.143,2.048    c-0.63,0-1.143-0.577-1.143-1.286S24.727,15,25.357,15 M14.643,15c0.63,0,1.143,0.577,1.143,1.286s-0.513,1.286-1.143,1.286    c-0.397,0-1.143-1.085-1.143-2.048C13.5,15.231,13.5,15,14.643,15 M25.357,14c-1.183,0-2.143,1.023-2.143,2.286    c0,1.262,0.959,2.286,2.143,2.286s2.143-1.785,2.143-3.048C27.5,14.261,26.541,14,25.357,14L25.357,14z M14.643,14    c-1.183,0-2.143,0.261-2.143,1.524c0,1.262,0.959,3.048,2.143,3.048s2.143-1.023,2.143-2.286C16.786,15.023,15.826,14,14.643,14    L14.643,14z"/>
	</g>
</g>
<g>
	<g>
		<path style="fill:#FFFFFF;" d="M20,23.338c-0.432,0-0.847-0.148-1.199-0.429l-0.083-0.066l-0.103-0.027    C16.192,22.188,14.5,20.001,14.5,17.5v-6.974c0-1.301,1.059-2.36,2.359-2.36h6.281c1.301,0,2.359,1.059,2.359,2.36V17.5    c0,2.501-1.692,4.688-4.115,5.317l-0.103,0.027l-0.083,0.066C20.847,23.19,20.432,23.338,20,23.338z"/>
	</g>
	<g>
		<path style="fill:#4788C7;" d="M23.141,8.667c1.025,0,1.859,0.834,1.859,1.86V17.5c0,2.273-1.538,4.261-3.741,4.833l-0.205,0.053    l-0.166,0.132c-0.183,0.146-0.486,0.32-0.887,0.32s-0.704-0.174-0.887-0.32l-0.166-0.132l-0.205-0.053    C16.538,21.761,15,19.773,15,17.5v-6.974c0-1.025,0.834-1.86,1.859-1.86H23.141 M23.141,7.667h-6.281    c-1.579,0-2.859,1.28-2.859,2.86V17.5c0,2.791,1.909,5.13,4.49,5.801c0.416,0.331,0.937,0.538,1.51,0.538s1.094-0.206,1.51-0.538    C24.091,22.63,26,20.291,26,17.5v-6.974C26,8.947,24.72,7.667,23.141,7.667L23.141,7.667z"/>
	</g>
</g>
<g>
	<path style="fill:#B6DCFE;" d="M25.5,16.313v-2.75c0-2.955-1.785-4.565-1.861-4.632l-0.415-0.366l-0.324,0.45   c-0.067,0.094-1.698,2.307-5.216,2.307c-1.912,0-3.185,0.52-3.185,3.054v1.938h-0.191c-0.441-0.896-1.809-3.833-1.809-5.747   C12.5,5.927,15.77,3.5,19,3.5c3.56,0,4.38,1.75,4.413,1.825l0.113,0.254l0.279,0.044C24.422,5.707,27.5,6.33,27.5,10.325   c0,1.29-1.222,4.512-1.833,5.988H25.5z"/>
	<g>
		<path style="fill:#4788C7;" d="M19,4c3.184,0,3.93,1.472,3.949,1.511l0.22,0.529l0.568,0.078C24.503,6.223,27,6.835,27,10.325    c0,0.729-0.468,2.268-1,3.744v-0.506c0-3.178-1.947-4.934-2.03-5.007l-0.835-0.737l-0.643,0.909    c-0.015,0.021-1.52,2.094-4.808,2.094c-1.715,0-3.684,0.404-3.684,3.554v0.028c-0.507-1.254-1-2.766-1-3.837    C13,6.255,16.018,4,19,4 M19,3c-3.554,0-7,2.753-7,7.565c0,2.422,2,6.247,2,6.247h1c0,0,0-1.648,0-2.438    c0-2.168,0.957-2.554,2.684-2.554c3.843,0,5.624-2.516,5.624-2.516S25,10.799,25,13.563c0,0.868,0,3.25,0,3.25h1    c0,0,2-4.695,2-6.488c0-3.67-2.438-4.967-4.127-5.198C23.873,5.127,22.989,3,19,3L19,3z"/>
	</g>
</g>
</svg>