<svg xmlns="http://www.w3.org/2000/svg" xmlns:xlink="http://www.w3.org/1999/xlink" version="1.1" id="Layer_1" x="0px" y="0px" viewBox="0 0 40 40" style="enable-background:new 0 0 40 40;" xml:space="preserve" width="40" height="40">
<g>
	<circle style="fill:#DFF0FE;" cx="32" cy="17" r="4.5"/>
	<g>
		<path style="fill:#4788C7;" d="M32,13c2.206,0,4,1.794,4,4s-1.794,4-4,4s-4-1.794-4-4S29.794,13,32,13 M32,12    c-2.761,0-5,2.239-5,5s2.239,5,5,5s5-2.239,5-5S34.761,12,32,12L32,12z"/>
	</g>
</g>
<g>
	<path style="fill:#98CCFD;" d="M24.5,32.5V31c0-4.136,3.364-7.5,7.5-7.5s7.5,3.364,7.5,7.5v1.5H24.5z"/>
	<g>
		<path style="fill:#4788C7;" d="M32,24c3.86,0,7,3.14,7,7v1H25v-1C25,27.14,28.14,24,32,24 M32,23c-4.418,0-8,3.582-8,8    c0,0,0,1.063,0,2h16c0-0.937,0-2,0-2C40,26.582,36.418,23,32,23L32,23z"/>
	</g>
</g>
<g>
	<circle style="fill:#DFF0FE;" cx="8" cy="17" r="4.5"/>
	<g>
		<path style="fill:#4788C7;" d="M8,13c2.206,0,4,1.794,4,4s-1.794,4-4,4s-4-1.794-4-4S5.794,13,8,13 M8,12c-2.761,0-5,2.239-5,5    s2.239,5,5,5s5-2.239,5-5S10.761,12,8,12L8,12z"/>
	</g>
</g>
<g>
	<path style="fill:#98CCFD;" d="M0.5,32.5V31c0-4.136,3.364-7.5,7.5-7.5s7.5,3.364,7.5,7.5v1.5H0.5z"/>
	<g>
		<path style="fill:#4788C7;" d="M8,24c3.86,0,7,3.14,7,7v1H1v-1C1,27.14,4.14,24,8,24 M8,23c-4.418,0-8,3.582-8,8c0,0,0,1.063,0,2    h16c0-0.937,0-2,0-2C16,26.582,12.418,23,8,23L8,23z"/>
	</g>
</g>
<g>
	<circle style="fill:#FFFFFF;" cx="20" cy="12" r="6.5"/>
	<g>
		<path style="fill:#4788C7;" d="M20,6c3.308,0,6,2.692,6,6s-2.692,6-6,6s-6-2.692-6-6S16.692,6,20,6 M20,5c-3.866,0-7,3.134-7,7    s3.134,7,7,7s7-3.134,7-7S23.866,5,20,5L20,5z"/>
	</g>
</g>
<g>
	<path style="fill:#DFF0FE;" d="M9.5,34.5V31c0-5.79,4.71-10.5,10.5-10.5S30.5,25.21,30.5,31v3.5H9.5z"/>
	<g>
		<path style="fill:#4788C7;" d="M20,21c5.514,0,10,4.486,10,10v3H10v-3C10,25.486,14.486,21,20,21 M20,20c-6.075,0-11,4.925-11,11    c0,0,0,1.674,0,4h22c0-2.326,0-4,0-4C31,24.925,26.075,20,20,20L20,20z"/>
	</g>
</g>
</svg>