<svg xmlns="http://www.w3.org/2000/svg" xmlns:xlink="http://www.w3.org/1999/xlink" version="1.1" id="Layer_1" x="0px" y="0px" viewBox="0 0 40 40" style="enable-background:new 0 0 40 40;" xml:space="preserve" width="40" height="40">
<g>
	<path style="fill:#FFFFFF;" d="M12.5,38.5V28.165l-0.199-0.15c-3.124-2.352-5.166-5.577-5.602-8.849   c-0.388-2.912,0.475-5.752,2.565-8.44c1.837-2.363,11.486-4.846,14.891-4.846c3.117,0,8.345,1.262,8.345,9.714v0.112l2.924,6.213   c0.09,0.19,0.095,0.401,0.016,0.596c-0.079,0.194-0.231,0.341-0.428,0.414L32.5,23.859V29c0,2.481-2.019,4.5-4.5,4.5h-1.5v5H12.5z"/>
	<g>
		<path style="fill:#4788C7;" d="M24.155,6.379c3.579,0,7.845,1.599,7.845,9.214v0.224l0.095,0.202l2.877,6.112    c0.037,0.079,0.023,0.149,0.005,0.193c-0.018,0.045-0.057,0.104-0.139,0.134l-2.185,0.81L32,23.511v0.696V29c0,2.206-1.794,4-4,4    h-1h-1v1v4H13v-9.585v-0.499l-0.399-0.3C9.584,25.344,7.613,22.24,7.195,19.1c-0.369-2.775,0.46-5.489,2.464-8.068    C11.384,8.813,20.912,6.379,24.155,6.379 M24.155,5.379c-3.324,0-13.245,2.415-15.285,5.039C3.334,17.539,7.037,24.679,12,28.415    V39h15v-5h1c2.761,0,5-2.239,5-5v-4.793l2.185-0.81c0.681-0.253,1.001-1.034,0.691-1.691L33,15.594    C33,7.888,28.728,5.379,24.155,5.379L24.155,5.379z"/>
	</g>
</g>
<g>
	<path style="fill:#B6DCFE;" d="M12.304,30.17c-0.553-1.448-1.689-2.65-2.882-3.913C7.115,23.816,4.5,21.049,4.5,15.403   C4.5,7.867,11.018,1.5,18.732,1.5c6.737,0,11.337,2.776,12.604,3.639C30.634,6.258,28.314,9.5,25,9.5h-0.5V10   c0,1.943-0.948,5.232-4.5,5.232h-0.5V19.5h-0.768c-1.149,0.108-3.232,1.078-3.232,3.993v4.259L12.304,30.17z"/>
	<g>
		<path style="fill:#4788C7;" d="M18.732,2c6.009,0,10.278,2.255,11.912,3.283C29.768,6.558,27.733,9,25,9h-1v1    c0,0.484-0.112,4.732-4,4.732h-1v1V19h-0.268h-0.048l-0.048,0.005C17.379,19.125,15,20.219,15,23.492v4.01l-2.494,1.887    c-0.634-1.267-1.656-2.348-2.721-3.476C7.542,23.54,5,20.85,5,15.403C5,8.138,11.289,2,18.732,2 M18.732,1    C10.777,1,4,7.449,4,15.403C4,24.742,11.024,26.592,12.036,31L16,28v-4.508C16,20.262,18.732,20,18.732,20H20v-4.268    c3.943,0,5-3.589,5-5.732c4.342,0,7-5,7-5S26.957,1,18.732,1L18.732,1z"/>
	</g>
</g>
<g>
	<path style="fill:#98CCFD;" d="M18,16c-0.827,0-1.5-0.673-1.5-1.5V2c0-0.827,0.673-1.5,1.5-1.5h1c0.827,0,1.5,0.673,1.5,1.5v12.5   c0,0.827-0.673,1.5-1.5,1.5H18z"/>
	<path style="fill:#4788C7;" d="M19,1c0.551,0,1,0.449,1,1v12.5c0,0.551-0.449,1-1,1h-1c-0.551,0-1-0.449-1-1V2c0-0.551,0.449-1,1-1   H19 M19,0h-1c-1.105,0-2,0.895-2,2v12.5c0,1.105,0.895,2,2,2h1c1.105,0,2-0.895,2-2V2C21,0.895,20.105,0,19,0L19,0z"/>
</g>
<path style="fill:#FFFFFF;" d="M33,29v-1.95C32.838,27.018,32.671,27,32.5,27c-1.381,0-2.5,1.119-2.5,2.5  c0,1.215,0.868,2.226,2.017,2.451C32.628,31.122,33,30.108,33,29z"/>
<path style="fill:none;stroke:#4788C7;stroke-miterlimit:10;" d="M18.5,22.776v1.345c0,2.971,2.408,5.379,5.379,5.379H32"/>
<g>
	<circle style="fill:#98CCFD;" cx="18.5" cy="17.5" r="5"/>
	<g>
		<path style="fill:#4788C7;" d="M18.5,13c2.481,0,4.5,2.019,4.5,4.5c0,2.481-2.019,4.5-4.5,4.5S14,19.981,14,17.5    C14,15.019,16.019,13,18.5,13 M18.5,12c-3.038,0-5.5,2.462-5.5,5.5s2.462,5.5,5.5,5.5s5.5-2.462,5.5-5.5S21.538,12,18.5,12    L18.5,12z"/>
	</g>
</g>
<g>
	<circle style="fill:#4788C7;" cx="18.5" cy="17.5" r="1.5"/>
</g>
<g>
	<circle style="fill:#4788C7;" cx="28.5" cy="18.5" r="1.5"/>
</g>
<circle style="fill:#4788C7;" cx="32.5" cy="29.5" r="1.5"/>
</svg>