<svg xmlns="http://www.w3.org/2000/svg" xmlns:xlink="http://www.w3.org/1999/xlink" version="1.1" id="Layer_1" x="0px" y="0px" viewBox="0 0 40 40" style="enable-background:new 0 0 40 40;" xml:space="preserve" width="40" height="40">
<g>
	<path style="fill:#FFFFFF;" d="M18.884,38.5c-2.764,0-4.602-1.968-4.679-2.052l-9.826-9.827c-0.588-0.587-0.899-1.369-0.878-2.2   c0.022-0.831,0.375-1.596,0.996-2.154c0.524-0.473,1.191-0.723,1.928-0.723c0.866,0,1.718,0.355,2.337,0.974l3.738,3.739v-9.829h20   V31c0,4.136-3.364,7.5-7.5,7.5H18.884z"/>
	<g>
		<path style="fill:#4788C7;" d="M32,16.929V31c0,3.86-3.14,7-7,7h-6.117c-2.532,0-4.241-1.816-4.34-1.921l-9.811-9.811    c-0.49-0.49-0.75-1.141-0.731-1.834c0.018-0.692,0.313-1.33,0.83-1.795c0.545-0.491,1.168-0.594,1.594-0.594    c0.734,0,1.457,0.302,1.983,0.828l2.885,2.885L13,27.464V25.05v-8.122H32 M33,15.929H12v9.122l-2.885-2.885    c-0.73-0.73-1.716-1.121-2.69-1.121c-0.815,0-1.622,0.273-2.263,0.851c-1.502,1.353-1.547,3.668-0.137,5.079l9.811,9.811    C13.957,36.917,15.915,39,18.883,39H25c4.418,0,8-3.582,8-8V15.929L33,15.929z"/>
	</g>
</g>
<g>
	<path style="fill:#FFFFFF;" d="M12.5,19.5V7c0-1.378,1.121-2.5,2.5-2.5s2.5,1.122,2.5,2.5v12.5H12.5z"/>
	<g>
		<path style="fill:#4788C7;" d="M15,5c1.103,0,2,0.897,2,2v12h-4V7C13,5.897,13.897,5,15,5 M15,4c-1.657,0-3,1.343-3,3v13h6V7    C18,5.343,16.657,4,15,4L15,4z"/>
	</g>
</g>
<g>
	<path style="fill:#FFFFFF;" d="M17.5,19.5V4c0-1.378,1.121-2.5,2.5-2.5s2.5,1.122,2.5,2.5v15.5H17.5z"/>
	<g>
		<path style="fill:#4788C7;" d="M20,2c1.103,0,2,0.897,2,2v15h-4V4C18,2.897,18.897,2,20,2 M20,1c-1.657,0-3,1.343-3,3v16h6V4    C23,2.343,21.657,1,20,1L20,1z"/>
	</g>
</g>
<g>
	<path style="fill:#FFFFFF;" d="M22.5,19.5V6c0-1.378,1.121-2.5,2.5-2.5s2.5,1.122,2.5,2.5v13.5H22.5z"/>
	<g>
		<path style="fill:#4788C7;" d="M25,4c1.103,0,2,0.897,2,2v13h-4V6C23,4.897,23.897,4,25,4 M25,3c-1.657,0-3,1.343-3,3v14h6V6    C28,4.343,26.657,3,25,3L25,3z"/>
	</g>
</g>
<g>
	<path style="fill:#FFFFFF;" d="M27.5,19.5V10c0-1.378,1.121-2.5,2.5-2.5s2.5,1.122,2.5,2.5v9.5H27.5z"/>
	<g>
		<path style="fill:#4788C7;" d="M30,8c1.103,0,2,0.897,2,2v9h-4v-9C28,8.897,28.897,8,30,8 M30,7c-1.657,0-3,1.343-3,3v10h6V10    C33,8.343,31.657,7,30,7L30,7z"/>
	</g>
</g>
<rect x="13" y="18" style="fill:#FFFFFF;" width="19" height="6"/>
<line style="fill:none;stroke:#4788C7;stroke-width:3;stroke-miterlimit:10;" x1="17" y1="22" x2="27" y2="32"/>
<line style="fill:none;stroke:#4788C7;stroke-width:3;stroke-miterlimit:10;" x1="27" y1="22" x2="17" y2="32"/>
</svg>