<svg xmlns="http://www.w3.org/2000/svg" xmlns:xlink="http://www.w3.org/1999/xlink" version="1.1" id="Layer_1" x="0px" y="0px" viewBox="0 0 40 40" style="enable-background:new 0 0 40 40;" xml:space="preserve" width="40" height="40">
<polygon style="fill:#B6DCFE;" points="7.746,17.814 12.38,26.825 21.004,23.285 24.994,11.765 11.543,12.472 "/>
<g>
	<g>
		<circle style="fill:#B6DCFE;" cx="10" cy="31" r="7.5"/>
	</g>
	<g>
		<path style="fill:#4788C7;" d="M10,24c3.86,0,7,3.14,7,7s-3.14,7-7,7s-7-3.14-7-7S6.14,24,10,24 M10,23c-4.418,0-8,3.582-8,8    c0,4.418,3.582,8,8,8s8-3.582,8-8C18,26.582,14.418,23,10,23L10,23z"/>
	</g>
</g>
<rect x="9" y="27.001" style="fill:#4788C7;" width="2" height="7.999"/>
<g>
	<path style="fill:#FFFFFF;" d="M12.402,31.558c-1.636,0-2.773-0.7-3.381-2.082c-1.159-2.635,1.143-4.688,1.644-4.982l9.648-5.707   l-0.007-3.855l-0.658,0.22c-0.008,0.002-0.858,0.282-1.879,0.282c-0.785,0-1.455-0.161-1.99-0.479l-0.53-0.315l-0.198,0.584   c-0.875,2.571-3.66,3.666-3.688,3.677l-0.508,0.194l1.552,3.207l-2.116,1.218c-0.166-0.017-0.333-0.024-0.501-0.024   c-1.436,0-3.018,0.584-4.412,1.617l-1.788-2.864c-1.336-2.175-1.235-4.921,0.26-6.993l4.414-6.121   c1.046-1.451,2.569-2.521,4.289-3.011l15.9-4.541l8.762,12.971c-1.213,1.358-1.812,3.027-2.392,4.646   c-0.931,2.596-1.81,5.049-5.062,6.431c-2.97,1.262-13.462,5.019-14.81,5.472C14.329,31.308,13.381,31.558,12.402,31.558   L12.402,31.558z"/>
	<g>
		<path style="fill:#4788C7;" d="M28.242,2.161l8.346,12.355c-1.108,1.366-1.68,2.962-2.236,4.512    c-0.893,2.49-1.736,4.843-4.787,6.139c-3.016,1.282-13.381,4.99-14.774,5.458c-0.587,0.197-1.478,0.433-2.389,0.433    c-1.439,0-2.396-0.583-2.924-1.784c-0.998-2.269,1.026-4.106,1.44-4.349c0.534-0.314,1.483-0.875,2.58-1.523l0.069-0.041    c2.89-1.709,6.755-3.998,6.755-3.998l0.491-0.291L20.813,18.5l-0.005-2.878l-0.006-1.38l-1.311,0.433    c-0.008,0.003-0.789,0.257-1.722,0.257c-0.694,0-1.277-0.138-1.735-0.409l-1.06-0.63l-0.397,1.167    c-0.797,2.34-3.368,3.361-3.391,3.37l-1.021,0.388l0.476,0.983l1.113,2.297l-1.577,0.908c-0.127-0.009-0.256-0.013-0.385-0.013    c-1.39,0-2.899,0.504-4.267,1.406l-1.505-2.413c-1.232-2.004-1.139-4.533,0.237-6.441L8.67,9.424    c0.981-1.36,2.409-2.362,4.021-2.823L28.242,2.161 M28.665,1L12.416,5.64C10.581,6.164,8.975,7.291,7.859,8.84l-4.414,6.121    c-1.608,2.23-1.718,5.208-0.278,7.55l2.083,3.338c1.338-1.12,3.005-1.856,4.542-1.856c0.205,0,0.407,0.013,0.606,0.04l2.593-1.492    c0.023-0.014,0.046-0.027,0.069-0.041l-1.518-3.135c0,0,3.017-1.146,3.982-3.983c0.709,0.422,1.521,0.55,2.245,0.55    c1.124,0,2.039-0.308,2.039-0.308l0.005,2.878c0,0-3.864,2.289-6.754,3.998l0,0.001l-0.07,0.04    c-1.096,0.648-2.044,1.208-2.578,1.522c-0.827,0.486-3.088,2.798-1.848,5.614c0.813,1.847,2.348,2.381,3.839,2.381    c0.999,0,1.978-0.24,2.708-0.485c1.508-0.507,11.877-4.224,14.846-5.486c5.742-2.44,4.563-8.15,7.897-11.485L28.665,1L28.665,1z"/>
	</g>
</g>
<path style="fill:#B6DCFE;" d="M14.023,29.456l-1.65-3.808c-0.258,0.112-0.711,0.356-0.711,0.356  c-1.052,0.456-1.535,1.678-1.079,2.729c0.456,1.052,1.678,1.535,2.729,1.079C13.312,29.812,13.765,29.568,14.023,29.456z"/>
<path style="fill:#FFFFFF;" d="M12.192,23l-0.545-1.121L10,23c0.632,0,1.244,0.081,1.834,0.22L12.192,23z"/>
</svg>