<svg xmlns="http://www.w3.org/2000/svg" xmlns:xlink="http://www.w3.org/1999/xlink" version="1.1" id="Layer_1" x="0px" y="0px" viewBox="0 0 40 40" style="enable-background:new 0 0 40 40;" xml:space="preserve" width="40" height="40">
<g>
	<g>
		<path style="fill:#98CCFD;" d="M20,38.5C9.799,38.5,1.5,30.201,1.5,20S9.799,1.5,20,1.5S38.5,9.799,38.5,20S30.201,38.5,20,38.5z     M20,14.5c-3.033,0-5.5,2.468-5.5,5.5s2.467,5.5,5.5,5.5s5.5-2.468,5.5-5.5S23.033,14.5,20,14.5z"/>
	</g>
	<g>
		<path style="fill:#4788C7;" d="M20,2c9.925,0,18,8.075,18,18s-8.075,18-18,18S2,29.925,2,20S10.075,2,20,2 M20,26    c3.308,0,6-2.692,6-6s-2.692-6-6-6s-6,2.692-6,6S16.692,26,20,26 M20,1C9.507,1,1,9.507,1,20s8.507,19,19,19s19-8.507,19-19    S30.493,1,20,1L20,1z M20,25c-2.761,0-5-2.239-5-5c0-2.761,2.239-5,5-5s5,2.239,5,5C25,22.761,22.761,25,20,25L20,25z"/>
	</g>
</g>
<g>
	<path style="fill:#FFFFFF;" d="M24.227,23.52C25.051,22.533,25.5,21.302,25.5,20c0-0.563-0.088-1.12-0.264-1.662l12.834-2.281   c0.003,0.014,0.073,0.344,0.073,0.344c0.104,0.529,0.187,1.065,0.243,1.592l0.026,0.297C38.472,18.925,38.5,19.484,38.5,20   c0,0.632-0.032,1.269-0.096,1.892c-0.411,4.046-2.171,7.873-4.974,10.831L24.227,23.52z"/>
	<g>
		<path style="fill:#4788C7;" d="M37.68,16.634c0.089,0.469,0.159,0.944,0.21,1.412l0.016,0.173l0.01,0.117    C37.972,18.954,38,19.499,38,20c0,0.615-0.031,1.234-0.093,1.842c-0.382,3.765-1.967,7.336-4.492,10.159l-8.524-8.524    C25.612,22.469,26,21.264,26,20c0-0.427-0.046-0.849-0.138-1.266L37.68,16.634 M38.437,15.484l-13.886,2.468    C24.834,18.578,25,19.268,25,20c0,1.381-0.56,2.631-1.464,3.536l9.899,9.899c3.009-3.009,5.013-7.021,5.467-11.492    C38.967,21.304,39,20.656,39,20c0-0.593-0.036-1.177-0.089-1.756c-0.009-0.102-0.017-0.204-0.028-0.306    c-0.06-0.552-0.143-1.097-0.249-1.634c-0.021-0.105-0.044-0.208-0.066-0.313C38.531,15.819,38.479,15.654,38.437,15.484    L38.437,15.484z"/>
	</g>
</g>
<g>
	<path style="fill:#DFF0FE;" d="M25.478,19.5c-0.238-2.635-2.343-4.739-4.978-4.978V1.507C30.304,1.769,38.231,9.696,38.493,19.5   H25.478z"/>
	<g>
		<path style="fill:#4788C7;" d="M21,2.027C30.131,2.53,37.47,9.869,37.973,19H25.917c-0.423-2.509-2.408-4.494-4.917-4.917V2.027     M20,1v14c2.761,0,5,2.239,5,5h14C39,9.507,30.493,1,20,1L20,1z"/>
	</g>
</g>
</svg>