<svg xmlns="http://www.w3.org/2000/svg" xmlns:xlink="http://www.w3.org/1999/xlink" version="1.1" id="Layer_1" x="0px" y="0px" viewBox="0 0 40 40" style="enable-background:new 0 0 40 40;" xml:space="preserve" width="40" height="40">
<g>
	<g>
		<path style="fill:#98CCFD;" d="M7,38.5c-0.827,0-1.5-0.673-1.5-1.5V5c0-0.827,0.673-1.5,1.5-1.5h26c0.827,0,1.5,0.673,1.5,1.5v32    c0,0.827-0.673,1.5-1.5,1.5H7z"/>
	</g>
	<g>
		<path style="fill:#4788C7;" d="M33,4c0.551,0,1,0.449,1,1v32c0,0.551-0.449,1-1,1H7c-0.551,0-1-0.449-1-1V5c0-0.551,0.449-1,1-1    H33 M33,3H7C5.895,3,5,3.895,5,5v32c0,1.105,0.895,2,2,2h26c1.105,0,2-0.895,2-2V5C35,3.895,34.105,3,33,3L33,3z"/>
	</g>
</g>
<g>
	<circle style="fill:#FFFFFF;" cx="20" cy="19" r="4"/>
</g>
<path style="fill:#FFFFFF;" d="M27,32c0-3.866-3.134-7-7-7c-3.866,0-7,3.134-7,7H27z"/>
<g>
	<path style="fill:#4788C7;" d="M24,9h-8c-0.552,0-1-0.448-1-1v0c0-0.552,0.448-1,1-1h8c0.552,0,1,0.448,1,1v0   C25,8.552,24.552,9,24,9z"/>
</g>
<g>
	<path style="fill:#DFF0FE;" d="M16.5,7.5V2.333c0-0.459,0.374-0.833,0.833-0.833h5.333c0.459,0,0.833,0.374,0.833,0.833V7.5H16.5z"/>
	<g>
		<path style="fill:#4788C7;" d="M22.667,2C22.85,2,23,2.15,23,2.333V7h-6V2.333C17,2.15,17.15,2,17.333,2H22.667 M22.667,1h-5.333    C16.597,1,16,1.597,16,2.333V8h8V2.333C24,1.597,23.403,1,22.667,1L22.667,1z"/>
	</g>
</g>
</svg>