<svg xmlns="http://www.w3.org/2000/svg" xmlns:xlink="http://www.w3.org/1999/xlink" version="1.1" id="Layer_1" x="0px" y="0px" viewBox="0 0 40 40" style="enable-background:new 0 0 40 40;" xml:space="preserve" width="40" height="40">
<g>
	<g>
		<path style="fill:#98CCFD;" d="M37.994,38.46c-2.113-0.165-4.481-0.831-6.778-1.917l-0.192-0.091l-0.199,0.076    C29.131,37.173,27.34,37.5,25.5,37.5c-7.168,0-13-4.935-13-11s5.832-11,13-11s13,4.935,13,11c0,2.529-1.042,5.001-2.935,6.959    l-0.242,0.251l0.151,0.313C36.292,35.724,37.138,37.211,37.994,38.46z"/>
	</g>
	<g>
		<path style="fill:#4788C7;" d="M25.5,16C32.393,16,38,20.71,38,26.5c0,2.4-0.992,4.748-2.794,6.611l-0.484,0.501l0.302,0.628    c0.641,1.333,1.3,2.537,1.968,3.602c-1.775-0.267-3.691-0.866-5.563-1.751l-0.385-0.182l-0.398,0.152    C29.009,36.684,27.278,37,25.5,37C18.607,37,13,32.29,13,26.5S18.607,16,25.5,16 M25.5,15C18.044,15,12,20.149,12,26.5    C12,32.851,18.044,38,25.5,38c1.961,0,3.82-0.364,5.501-1.005C33.547,38.198,36.405,39,39,39    c-1.176-1.549-2.201-3.377-3.075-5.194C37.846,31.82,39,29.275,39,26.5C39,20.149,32.956,15,25.5,15L25.5,15z"/>
	</g>
</g>
<path style="fill:#FFFFFF;" d="M27.035,21h-2.977L20,32h2.721c0,0,2.703-8.714,2.729-9.036h0.062C25.548,23.347,28.264,32,28.264,32  H31L27.035,21z"/>
<rect x="22" y="27" style="fill:#FFFFFF;" width="7" height="2"/>
<g>
	<g>
		<path style="fill:#DFF0FE;" d="M2.006,24.46c0.856-1.249,1.702-2.736,2.52-4.437l0.151-0.313l-0.242-0.251    C2.542,17.501,1.5,15.029,1.5,12.5c0-6.065,5.832-11,13-11s13,4.935,13,11s-5.832,11-13,11c-1.84,0-3.631-0.327-5.324-0.972    l-0.199-0.076l-0.192,0.091C6.487,23.629,4.119,24.295,2.006,24.46z"/>
	</g>
	<g>
		<path style="fill:#4788C7;" d="M14.5,2C21.393,2,27,6.71,27,12.5S21.393,23,14.5,23c-1.778,0-3.509-0.316-5.145-0.939    l-0.398-0.152l-0.385,0.182c-1.872,0.885-3.788,1.484-5.563,1.751c0.668-1.065,1.326-2.269,1.968-3.602l0.302-0.628l-0.484-0.501    C2.992,17.248,2,14.9,2,12.5C2,6.71,7.607,2,14.5,2 M14.5,1C7.044,1,1,6.149,1,12.5c0,2.775,1.154,5.32,3.075,7.306    C3.201,21.623,2.176,23.451,1,25c2.595,0,5.453-0.802,7.999-2.005C10.68,23.636,12.539,24,14.5,24C21.956,24,28,18.851,28,12.5    C28,6.149,21.956,1,14.5,1L14.5,1z"/>
	</g>
</g>
<path style="fill:#4788C7;" d="M14,8c1.626,0,3,1.832,3,4s-1.374,4-3,4s-3-1.832-3-4S12.374,8,14,8 M14,6c-2.761,0-5,2.686-5,6  s2.239,6,5,6s5-2.686,5-6S16.761,6,14,6L14,6z"/>
<polygon style="fill:#4788C7;" points="14,16 17,16 20,19 17,19 "/>
</svg>