<svg xmlns="http://www.w3.org/2000/svg" xmlns:xlink="http://www.w3.org/1999/xlink" version="1.1" id="Layer_1" x="0px" y="0px" viewBox="0 0 40 40" style="enable-background:new 0 0 40 40;" xml:space="preserve" width="40" height="40">
<g>
	<polygon style="fill:#B6DCFE;" points="13.5,15.5 13.5,14.704 16.163,6.5 23.837,6.5 26.5,14.704 26.5,15.5  "/>
	<g>
		<path style="fill:#4788C7;" d="M23.473,7L26,14.783V15H14v-0.217L16.527,7H23.473 M24.2,6h-8.4L13,14.625V16h14v-1.375L24.2,6    L24.2,6z"/>
	</g>
</g>
<g>
	<polygon style="fill:#DFF0FE;" points="16.527,7 15.877,9 24.123,9 23.473,7  "/>
</g>
<g>
	<polygon style="fill:#B6DCFE;" points="6.5,24.5 6.5,23.704 9.163,15.5 16.837,15.5 19.5,23.704 19.5,24.5  "/>
	<g>
		<path style="fill:#4788C7;" d="M16.473,16L19,23.783V24H7v-0.217L9.527,16H16.473 M17.2,15H8.8L6,23.625V25h14v-1.375L17.2,15    L17.2,15z"/>
	</g>
</g>
<g>
	<polygon style="fill:#DFF0FE;" points="9.527,16 8.877,18 17.123,18 16.473,16  "/>
</g>
<g>
	<polygon style="fill:#B6DCFE;" points="20.5,24.5 20.5,23.704 23.163,15.5 30.837,15.5 33.5,23.704 33.5,24.5  "/>
	<g>
		<path style="fill:#4788C7;" d="M30.473,16L33,23.783V24H21v-0.217L23.527,16H30.473 M31.2,15h-8.4L20,23.625V25h14v-1.375L31.2,15    L31.2,15z"/>
	</g>
</g>
<g>
	<polygon style="fill:#DFF0FE;" points="23.527,16 22.877,18 31.123,18 30.473,16  "/>
</g>
<g>
	<polygon style="fill:#B6DCFE;" points="13.5,33.5 13.5,32.704 16.163,24.5 23.837,24.5 26.5,32.704 26.5,33.5  "/>
	<g>
		<path style="fill:#4788C7;" d="M23.473,25L26,32.783V33H14v-0.217L16.527,25H23.473 M24.2,24h-8.4L13,32.625V34h14v-1.375L24.2,24    L24.2,24z"/>
	</g>
</g>
<g>
	<polygon style="fill:#DFF0FE;" points="16.527,25 15.877,27 24.123,27 23.473,25  "/>
</g>
<g>
	<polygon style="fill:#B6DCFE;" points="26.5,33.5 26.5,32.704 29.163,24.5 36.837,24.5 39.5,32.704 39.5,33.5  "/>
	<g>
		<path style="fill:#4788C7;" d="M36.473,25L39,32.783V33H27v-0.217L29.527,25H36.473 M37.2,24h-8.4L26,32.625V34h14v-1.375L37.2,24    L37.2,24z"/>
	</g>
</g>
<g>
	<polygon style="fill:#DFF0FE;" points="29.527,25 28.877,27 37.123,27 36.473,25  "/>
</g>
<g>
	<polygon style="fill:#B6DCFE;" points="0.5,33.5 0.5,32.704 3.163,24.5 10.837,24.5 13.5,32.704 13.5,33.5  "/>
	<g>
		<path style="fill:#4788C7;" d="M10.473,25L13,32.783V33H1v-0.217L3.527,25H10.473 M11.2,24H2.8L0,32.625V34h14v-1.375L11.2,24    L11.2,24z"/>
	</g>
</g>
<g>
	<polygon style="fill:#DFF0FE;" points="3.527,25 2.877,27 11.123,27 10.473,25  "/>
</g>
</svg>