<svg xmlns="http://www.w3.org/2000/svg" xmlns:xlink="http://www.w3.org/1999/xlink" version="1.1" id="Layer_1" x="0px" y="0px" viewBox="0 0 40 40" style="enable-background:new 0 0 40 40;" xml:space="preserve" width="40" height="40">
<g>
	<g>
		<path style="fill:#FFFFFF;" d="M20,38.5c-1.268,0-2.446-0.526-3.316-1.483L16.6,36.925l-0.118-0.042    C12.306,35.396,9.5,31.424,9.5,27V12.381c0-2.615,2.127-4.742,4.742-4.742h11.516c2.615,0,4.742,2.127,4.742,4.742V27    c0,4.424-2.806,8.396-6.982,9.883L23.4,36.925l-0.084,0.092C22.446,37.974,21.268,38.5,20,38.5z"/>
	</g>
	<g>
		<path style="fill:#4788C7;" d="M25.758,8.139c2.339,0,4.242,1.903,4.242,4.242V27c0,4.213-2.672,7.995-6.65,9.412l-0.236,0.084    l-0.168,0.185C22.172,37.532,21.125,38,20,38s-2.172-0.469-2.946-1.32l-0.168-0.185l-0.236-0.084C12.672,34.995,10,31.213,10,27    V12.381c0-2.339,1.903-4.242,4.242-4.242H25.758 M25.758,7.139H14.242C11.347,7.139,9,9.486,9,12.381V27    c0,4.78,3.055,8.837,7.314,10.354C17.229,38.358,18.534,39,20,39s2.771-0.642,3.686-1.647C27.945,35.837,31,31.78,31,27V12.381    C31,9.486,28.653,7.139,25.758,7.139L25.758,7.139z"/>
	</g>
</g>
<circle style="fill:#4788C7;" cx="25.75" cy="25.429" r="1.357"/>
<circle style="fill:#4788C7;" cx="14.893" cy="25.429" r="1.357"/>
<g>
	<path style="fill:#B6DCFE;" d="M32,37.5c-2.786,0-5.358-0.999-6.593-1.566c1.599-1.12,5.093-4.142,5.093-9.147v-6.904   c0-3.774-4.073-6.211-4.247-6.313l-0.446-0.263l-0.247,0.455c-0.026,0.048-2.695,4.82-9.379,5.743   C12.963,19.95,9.5,22.236,9.5,26.204l1,0.083l-1-0.023v0.522c0,5.072,3.832,8.21,5.622,9.399C13.783,36.679,11.221,37.5,9,37.5   c-3.864,0-5.765-1.786-6.366-2.493c0.807-1.034,3.258-4.381,3.258-6.863c0-1.341-0.31-2.886-0.638-4.521   C4.884,21.772,4.5,19.86,4.5,18c0-10.328,7.354-16.5,14.464-16.5c5.34,0,7.583,3.716,7.604,3.753L26.714,5.5H27   c4.605,0,9.5,3.68,9.5,10.5c0,2.219-0.486,4.549-0.957,6.803c-0.408,1.955-0.793,3.801-0.793,5.341c0,3.088,3.11,5.84,4.412,6.857   C38.038,35.786,35.216,37.5,32,37.5z"/>
	<g>
		<path style="fill:#4788C7;" d="M18.964,2c5.008,0,7.09,3.367,7.173,3.506L26.427,6H27c4.363,0,9,3.505,9,10    c0,2.167-0.481,4.472-0.946,6.7c-0.413,1.981-0.804,3.852-0.804,5.443c0,2.921,2.545,5.52,4.071,6.816    C37.021,35.78,34.643,37,32,37c-2.202,0-4.273-0.65-5.606-1.186C28.211,34.353,31,31.364,31,26.786v-6.904    c0-4.057-4.31-6.636-4.493-6.744l-0.894-0.525l-0.492,0.913c-0.025,0.046-2.546,4.592-9.007,5.484    C12.687,19.483,9,21.936,9,26.204v0.059v0.523c0,4.629,3.036,7.711,5.049,9.246C12.674,36.484,10.727,37,9,37    c-3.192,0-4.955-1.279-5.71-2.023c1.022-1.354,3.103-4.407,3.103-6.834c0-1.39-0.315-2.959-0.648-4.619    C5.379,21.698,5,19.811,5,18C5,7.985,12.1,2,18.964,2 M18.964,1C11.53,1,4,7.471,4,18c0,3.586,1.393,7.382,1.393,10.143    C5.393,30.905,2,35,2,35s1.925,3,7,3c3.303,0,7.246-1.719,7.246-1.719S10,33.035,10,26.786c0-0.444,0-0.523,0-0.523v0.023    c0,0,0-0.017,0-0.083c0-3.678,3.242-5.788,6.25-6.204c7.038-0.972,9.75-6,9.75-6s4,2.35,4,5.882c0,1.527,0,4.397,0,6.904    c0,6.13-5.607,9.202-5.607,9.202S27.945,38,32,38c4.392,0,8-3,8-3s-4.75-3.254-4.75-6.857c0-3.201,1.75-7.9,1.75-12.143    c0-7.196-5.274-11-10-11C27,5,24.652,1,18.964,1L18.964,1z"/>
	</g>
</g>
<path style="fill:#B6DCFE;" d="M29.813,32h-1.342c-0.834,1.332-1.852,2.332-2.667,2.996l3.762-0.06  C30.613,33.77,29.124,33.528,29.813,32z"/>
<path style="fill:none;stroke:#4788C7;stroke-miterlimit:10;" d="M22.286,33.5h9.143c2.249,0,4.071-1.823,4.071-4.071V27.5"/>
<path style="fill:#4788C7;" d="M21.5,35h-1c-0.828,0-1.5-0.672-1.5-1.5l0,0c0-0.828,0.672-1.5,1.5-1.5h1c0.828,0,1.5,0.672,1.5,1.5  l0,0C23,34.328,22.328,35,21.5,35z"/>
<g>
	<path style="fill:#98CCFD;" d="M34,28.5c-0.276,0-0.5-0.225-0.5-0.5v-7c0-0.275,0.224-0.5,0.5-0.5h2c0.827,0,1.5,0.673,1.5,1.5v5   c0,0.827-0.673,1.5-1.5,1.5H34z"/>
	<g>
		<path style="fill:#4788C7;" d="M36,21c0.551,0,1,0.449,1,1v5c0,0.551-0.449,1-1,1h-2v-7H36 M36,20h-2c-0.552,0-1,0.448-1,1v7    c0,0.552,0.448,1,1,1h2c1.105,0,2-0.895,2-2v-5C38,20.895,37.105,20,36,20L36,20z"/>
	</g>
</g>
</svg>