<svg xmlns="http://www.w3.org/2000/svg" xmlns:xlink="http://www.w3.org/1999/xlink" version="1.1" id="Layer_1" x="0px" y="0px" viewBox="0 0 40 40" style="enable-background:new 0 0 40 40;" xml:space="preserve" width="40" height="40">
<g>
	<rect x="4.5" y="6.5" style="fill:#FFFFFF;" width="34" height="32"/>
	<g>
		<path style="fill:#4788C7;" d="M38,7v31H5V7H38 M39,6H4v33h35V6L39,6z"/>
	</g>
</g>
<g>
	<rect x="4.5" y="6.5" style="fill:#B6DCFE;" width="34" height="6"/>
	<g>
		<path style="fill:#4788C7;" d="M38,7v5H5V7H38 M39,6H4v7h35V6L39,6z"/>
	</g>
</g>
<rect x="30" y="17" style="fill:#B6DCFE;" width="3" height="3"/>
<rect x="25" y="17" style="fill:#B6DCFE;" width="3" height="3"/>
<rect x="20" y="17" style="fill:#B6DCFE;" width="3" height="3"/>
<rect x="15" y="17" style="fill:#B6DCFE;" width="3" height="3"/>
<rect x="30" y="22" style="fill:#B6DCFE;" width="3" height="3"/>
<rect x="25" y="22" style="fill:#B6DCFE;" width="3" height="3"/>
<rect x="20" y="22" style="fill:#B6DCFE;" width="3" height="3"/>
<rect x="15" y="22" style="fill:#B6DCFE;" width="3" height="3"/>
<rect x="10" y="22" style="fill:#B6DCFE;" width="3" height="3"/>
<rect x="25" y="27" style="fill:#B6DCFE;" width="3" height="3"/>
<rect x="20" y="27" style="fill:#B6DCFE;" width="3" height="3"/>
<rect x="15" y="27" style="fill:#B6DCFE;" width="3" height="3"/>
<rect x="10" y="27" style="fill:#B6DCFE;" width="3" height="3"/>
<rect x="5" y="35" style="fill:#B6DCFE;" width="33" height="3"/>
<g>
	<path style="fill:#98CCFD;" d="M12,22.5C6.21,22.5,1.5,17.79,1.5,12S6.21,1.5,12,1.5S22.5,6.21,22.5,12S17.79,22.5,12,22.5z"/>
	<g>
		<path style="fill:#4788C7;" d="M12,2c5.514,0,10,4.486,10,10s-4.486,10-10,10S2,17.514,2,12S6.486,2,12,2 M12,1    C5.925,1,1,5.925,1,12s4.925,11,11,11s11-4.925,11-11S18.075,1,12,1L12,1z"/>
	</g>
</g>
<g>
	<circle style="fill:#FFFFFF;" cx="12" cy="12" r="8"/>
</g>
<circle style="fill:#4788C7;" cx="12" cy="12" r="1.375"/>
<polyline style="fill:none;stroke:#4788C7;stroke-linecap:round;stroke-miterlimit:10;" points="13.999,14.499 12,12 13.875,7.001   "/>
</svg>