<svg xmlns="http://www.w3.org/2000/svg" xmlns:xlink="http://www.w3.org/1999/xlink" version="1.1" id="Layer_1" x="0px" y="0px" viewBox="0 0 40 40" style="enable-background:new 0 0 40 40;" xml:space="preserve" width="40" height="40">
<g>
	<path style="fill:#DFF0FE;" d="M18.605,7.029C18.215,6.639,18,6.12,18,5.567c0-0.552,0.215-1.071,0.605-1.462   S19.516,3.5,20.067,3.5c0.553,0,1.071,0.215,1.462,0.605l13.264,13.264l-2.924,2.924L18.605,7.029z"/>
	<g>
		<path style="fill:#4788C7;" d="M20.068,4c0.419,0,0.812,0.163,1.108,0.459l12.91,12.91l-2.217,2.217l-12.91-12.91    C18.663,6.38,18.5,5.986,18.5,5.568c0-0.419,0.163-0.812,0.459-1.109C19.255,4.163,19.649,4,20.068,4 M20.068,3    c-0.657,0-1.314,0.251-1.816,0.752c-1.003,1.003-1.003,2.628,0,3.631L31.869,21l3.631-3.631L21.883,3.752    C21.382,3.251,20.725,3,20.068,3L20.068,3z"/>
	</g>
</g>
<g>
	<path style="fill:#DFF0FE;" d="M5.207,17.369L18.471,4.105C18.861,3.715,19.38,3.5,19.933,3.5c0.552,0,1.071,0.215,1.462,0.605   S22,5.016,22,5.567c0,0.553-0.215,1.071-0.605,1.462L8.131,20.293L5.207,17.369z"/>
	<path style="fill:#4788C7;" d="M19.932,4c0.419,0,0.812,0.163,1.108,0.459c0.296,0.296,0.459,0.69,0.459,1.109   c0,0.419-0.163,0.812-0.459,1.108l-12.91,12.91l-2.217-2.217l12.91-12.91C19.12,4.163,19.514,4,19.932,4 M19.932,3   c-0.657,0-1.314,0.251-1.816,0.752L4.5,17.369L8.131,21L21.748,7.383c1.003-1.003,1.003-2.628,0-3.631   C21.247,3.251,20.589,3,19.932,3L19.932,3z"/>
</g>
<g>
	<polygon style="fill:#98CCFD;" points="5.476,36.5 1.618,18.5 38.382,18.5 34.524,36.5  "/>
	<path style="fill:#4788C7;" d="M37.763,19L34.12,36H5.88L2.237,19H37.763 M39,18H1l4.071,19h29.857L39,18L39,18z"/>
</g>
<g>
	<rect x="0.5" y="15.5" style="fill:#B6DCFE;" width="39" height="4"/>
	<path style="fill:#4788C7;" d="M39,16v3H1v-3H39 M40,15H0v5h40V15L40,15z"/>
</g>
<polyline style="fill:none;stroke:#FFFFFF;stroke-width:3;stroke-miterlimit:10;" points="13,25.636 18.364,31 27,22.364 "/>
</svg>