<svg xmlns="http://www.w3.org/2000/svg" xmlns:xlink="http://www.w3.org/1999/xlink" version="1.1" id="Layer_1" x="0px" y="0px" viewBox="0 0 40 40" style="enable-background:new 0 0 40 40;" xml:space="preserve" width="40" height="40">
<g>
	<g>
		<path style="fill:#98CCFD;" d="M20,38.5C9.799,38.5,1.5,30.201,1.5,20S9.799,1.5,20,1.5S38.5,9.799,38.5,20S30.201,38.5,20,38.5z"/>
	</g>
	<g>
		<path style="fill:#4788C7;" d="M20,2c9.925,0,18,8.075,18,18s-8.075,18-18,18S2,29.925,2,20S10.075,2,20,2 M20,1    C9.507,1,1,9.507,1,20s8.507,19,19,19s19-8.507,19-19S30.493,1,20,1L20,1z"/>
	</g>
</g>
<g>
	<path style="fill:#FFFFFF;" d="M20.5,19.793v-3.376l17.564-0.428C38.354,17.3,38.5,18.647,38.5,20c0,4.774-1.797,9.273-5.07,12.723   L20.5,19.793z"/>
	<g>
		<path style="fill:#4788C7;" d="M37.66,16.5C37.886,17.647,38,18.821,38,20c0,4.473-1.621,8.697-4.584,12.002L21,19.586v-2.681    L37.66,16.5 M38.459,15.48L20,15.929V20l13.435,13.435C36.873,29.997,39,25.247,39,20C39,18.442,38.813,16.929,38.459,15.48    L38.459,15.48z"/>
	</g>
</g>
<g>
	<path style="fill:#DFF0FE;" d="M20.5,19.5V1.507C30.304,1.769,38.231,9.696,38.493,19.5H20.5z"/>
	<g>
		<path style="fill:#4788C7;" d="M21,2.027C30.131,2.53,37.47,9.869,37.973,19H21V2.027 M20,1v19h19C39,9.507,30.493,1,20,1L20,1z"/>
	</g>
</g>
</svg>