<svg xmlns="http://www.w3.org/2000/svg" xmlns:xlink="http://www.w3.org/1999/xlink" version="1.1" id="Layer_1" x="0px" y="0px" viewBox="0 0 40 40" style="enable-background:new 0 0 40 40;" xml:space="preserve" width="40" height="40">
<g>
	<path style="fill:#DFF0FE;" d="M8.511,29.5c0.263-6.11,5.316-11,11.489-11s11.227,4.89,11.489,11H8.511z"/>
	<g>
		<path style="fill:#4788C7;" d="M20,19c5.729,0,10.448,4.401,10.955,10H9.045C9.552,23.401,14.271,19,20,19 M20,18    c-6.627,0-12,5.373-12,12h24C32,23.373,26.627,18,20,18L20,18z"/>
	</g>
</g>
<g>
	<circle style="fill:#DFF0FE;" cx="20" cy="9" r="7.5"/>
	<path style="fill:#4788C7;" d="M20,2c3.86,0,7,3.14,7,7s-3.14,7-7,7s-7-3.14-7-7S16.14,2,20,2 M20,1c-4.418,0-8,3.582-8,8   s3.582,8,8,8s8-3.582,8-8S24.418,1,20,1L20,1z"/>
</g>
<g>
	<path style="fill:#98CCFD;" d="M19.136,38.5c-0.791-0.452-5.099-2.701-12.636-2.796v-16.2c7.719,0.116,12.187,2.89,12.232,2.918   l0.123,0.078l2.291,0l0.123-0.078c0.045-0.028,4.513-2.802,12.232-2.918v16.2c-7.537,0.096-11.845,2.344-12.636,2.796H19.136z"/>
	<g>
		<path style="fill:#4788C7;" d="M33,20.015v15.198C25.976,35.392,21.792,37.421,20.734,38h-1.469    C18.208,37.421,14.024,35.392,7,35.213V20.015c7.244,0.223,11.422,2.802,11.463,2.828L18.709,23H19h2h0.291l0.246-0.156    C21.58,22.816,25.715,20.237,33,20.015 M34,19c-8.288,0-13,3-13,3h-2c0,0-4.712-3-13-3v17.2c8.476,0,13,2.8,13,2.8h2    c0,0,4.524-2.8,13-2.8V19L34,19z"/>
	</g>
</g>
<path style="fill:#B6DCFE;" d="M23,22.11c-0.941,0.412-1.448,0.725-1.463,0.734L21.291,23H21h-2h-0.291l-0.246-0.156  c-0.014-0.009-0.523-0.319-1.463-0.729v14.882c1.13,0.418,1.895,0.801,2.266,1.004h1.469c0.371-0.203,1.136-0.586,2.266-1.004V22.11  z"/>
<g>
	<path style="fill:#DFF0FE;" d="M33,33.5c-1.93,0-3.5-1.57-3.5-3.5s1.57-3.5,3.5-3.5h2c0.276,0,0.5,0.224,0.5,0.5v6   c0,0.276-0.224,0.5-0.5,0.5H33z"/>
	<path style="fill:#4788C7;" d="M35,27v6h-2c-1.654,0-3-1.346-3-3s1.346-3,3-3H35 M35,26h-2c-2.209,0-4,1.791-4,4v0   c0,2.209,1.791,4,4,4h2c0.552,0,1-0.448,1-1v-6C36,26.448,35.552,26,35,26L35,26z"/>
</g>
<g>
	<path style="fill:#DFF0FE;" d="M5,33.5c-0.276,0-0.5-0.224-0.5-0.5v-6c0-0.276,0.224-0.5,0.5-0.5h2c1.93,0,3.5,1.57,3.5,3.5   S8.93,33.5,7,33.5H5z"/>
	<path style="fill:#4788C7;" d="M7,27c1.654,0,3,1.346,3,3s-1.346,3-3,3H5v-6H7 M7,26H5c-0.552,0-1,0.448-1,1v6c0,0.552,0.448,1,1,1   h2c2.209,0,4-1.791,4-4v0C11,27.791,9.209,26,7,26L7,26z"/>
</g>
</svg>