<svg xmlns="http://www.w3.org/2000/svg" xmlns:xlink="http://www.w3.org/1999/xlink" version="1.1" id="Layer_1" x="0px" y="0px" viewBox="0 0 40 40" style="enable-background:new 0 0 40 40;" xml:space="preserve" width="40" height="40">
<g>
	<rect x="2.5" y="11" style="fill:#FFFFFF;" width="35" height="27.5"/>
	<g>
		<path style="fill:#4788C7;" d="M37,11.5V38H3V11.5H37 M38,10.5H2V39h36V10.5L38,10.5z"/>
	</g>
</g>
<g>
	<rect x="9.5" y="21.5" style="fill:#B6DCFE;" width="21" height="17"/>
	<g>
		<path style="fill:#4788C7;" d="M30,22v16H10V22H30 M31,21H9v18h22V21L31,21z"/>
	</g>
</g>
<rect x="19" y="21" style="fill:#4788C7;" width="2" height="18"/>
<g>
	<path style="fill:#B6DCFE;" d="M36,18.5c-1.93,0-3.5-1.57-3.5-3.5c0-0.276-0.224-0.5-0.5-0.5s-0.5,0.224-0.5,0.5   c0,1.93-1.57,3.5-3.5,3.5s-3.5-1.57-3.5-3.5c0-0.276-0.224-0.5-0.5-0.5s-0.5,0.224-0.5,0.5c0,1.93-1.57,3.5-3.5,3.5   s-3.5-1.57-3.5-3.5c0-0.276-0.224-0.5-0.5-0.5s-0.5,0.224-0.5,0.5c0,1.93-1.57,3.5-3.5,3.5S8.5,16.93,8.5,15   c0-0.276-0.224-0.5-0.5-0.5S7.5,14.724,7.5,15c0,1.93-1.57,3.5-3.5,3.5c-0.114,0-0.229-0.005-0.345-0.016   C1.886,18.314,0.5,16.709,0.5,14.828v-3.702l2.94-5.462C3.479,5.591,3.5,5.51,3.5,5.427V3c0-0.827,0.673-1.5,1.5-1.5h30   c0.827,0,1.5,0.673,1.5,1.5v2.427c0,0.083,0.021,0.164,0.06,0.237l2.94,5.462v3.702c0,1.881-1.386,3.486-3.155,3.656   C36.229,18.495,36.114,18.5,36,18.5z"/>
	<g>
		<path style="fill:#4788C7;" d="M35,2c0.551,0,1,0.449,1,1v2.427c0,0.165,0.041,0.328,0.119,0.474L39,11.252v3.576    c0,1.626-1.187,3.013-2.702,3.158C36.198,17.995,36.098,18,36,18c-1.654,0-3-1.346-3-3c0-0.552-0.448-1-1-1s-1,0.448-1,1    c0,1.654-1.346,3-3,3s-3-1.346-3-3c0-0.552-0.448-1-1-1s-1,0.448-1,1c0,1.654-1.346,3-3,3s-3-1.346-3-3c0-0.552-0.448-1-1-1    s-1,0.448-1,1c0,1.654-1.346,3-3,3s-3-1.346-3-3c0-0.552-0.448-1-1-1s-1,0.448-1,1c0,1.654-1.346,3-3,3    c-0.098,0-0.198-0.005-0.298-0.014C2.187,17.841,1,16.454,1,14.828v-3.576l2.881-5.351C3.959,5.756,4,5.593,4,5.427V3    c0-0.551,0.449-1,1-1H35 M35,1H5C3.895,1,3,1.895,3,3v2.427L0,11v3.828c0,2.089,1.527,3.955,3.607,4.153    C3.739,18.994,3.871,19,4,19c2.209,0,4-1.791,4-4c0,2.209,1.791,4,4,4s4-1.791,4-4c0,2.209,1.791,4,4,4s4-1.791,4-4    c0,2.209,1.791,4,4,4s4-1.791,4-4c0,2.209,1.791,4,4,4c0.13,0,0.261-0.006,0.393-0.019C38.473,18.783,40,16.917,40,14.828V11    l-3-5.573V3C37,1.895,36.105,1,35,1L35,1z"/>
	</g>
</g>
<rect x="3" y="5" style="fill:#4788C7;" width="34" height="1"/>
<polygon style="fill:#DFF0FE;" points="1.136,11 38.864,11 36.173,6 3.827,6 "/>
<rect y="11" style="fill:#4788C7;" width="40" height="1"/>
</svg>