<svg xmlns="http://www.w3.org/2000/svg" xmlns:xlink="http://www.w3.org/1999/xlink" version="1.1" id="Layer_1" x="0px" y="0px" viewBox="0 0 40 40" style="enable-background:new 0 0 40 40;" xml:space="preserve" width="40" height="40">
<g>
	
		<rect x="24.54" y="1.613" transform="matrix(0.3197 -0.9475 0.9475 0.3197 10.0939 33.3843)" style="fill:#DFF0FE;" width="7.511" height="16.1"/>
	<g>
		<path style="fill:#4788C7;" d="M22.182,4.164L36.49,8.992l-2.082,6.169l-14.308-4.828L22.182,4.164 M21.554,2.897l-2.721,8.064    l16.203,5.467l2.721-8.064L21.554,2.897L21.554,2.897z"/>
	</g>
</g>
<line style="fill:none;stroke:#4788C7;stroke-miterlimit:10;" x1="27.033" y1="13.026" x2="24.603" y2="20.227"/>
<g>
	
		<rect x="6.276" y="3.207" transform="matrix(0.9775 -0.2108 0.2108 0.9775 -1.1459 3.1771)" style="fill:#FFFFFF;" width="16.1" height="7.511"/>
	<g>
		<path style="fill:#4788C7;" d="M21.02,2.188l1.373,6.365L7.633,11.737L6.26,5.372L21.02,2.188 M21.787,1L5.071,4.605l1.794,8.32    L23.581,9.32L21.787,1L21.787,1z"/>
	</g>
</g>
<line style="fill:none;stroke:#4788C7;stroke-miterlimit:10;" x1="14.965" y1="10.497" x2="16.568" y2="17.927"/>
<g>
	<circle style="fill:#DFF0FE;" cx="33.5" cy="22.5" r="4"/>
	<path style="fill:#4788C7;" d="M33.5,19c1.93,0,3.5,1.57,3.5,3.5S35.43,26,33.5,26S30,24.43,30,22.5S31.57,19,33.5,19 M33.5,18   c-2.485,0-4.5,2.015-4.5,4.5s2.015,4.5,4.5,4.5s4.5-2.015,4.5-4.5S35.985,18,33.5,18L33.5,18z"/>
</g>
<g>
	<path style="fill:#98CCFD;" d="M27.5,38.5v-6.875l-3.959-3.496c-0.275-0.242-0.475-0.556-0.578-0.907l-1.555-5.286   c-0.154-0.526-0.079-1.096,0.207-1.563c0.29-0.474,0.753-0.792,1.305-0.896c0.094-0.018,0.189-0.026,0.284-0.026   c0.854,0,1.719,0.668,1.971,1.522l1.358,4.615l3.299,2.913H35c1.93,0,3.5,1.57,3.5,3.5v6.5H27.5z"/>
	<g>
		<path style="fill:#4788C7;" d="M23.204,19.95L23.204,19.95c0.622,0,1.305,0.533,1.491,1.164l1.317,4.477l0.081,0.277l0.216,0.191    l3.049,2.692L29.642,29h0.378H35c1.654,0,3,1.346,3,3v6H28v-6.15v-0.451l-0.338-0.299l-3.79-3.346    c-0.204-0.18-0.352-0.413-0.429-0.674l-1.556-5.286c-0.117-0.396-0.062-0.808,0.154-1.161c0.215-0.352,0.56-0.588,0.971-0.666    C23.074,19.956,23.138,19.95,23.204,19.95 M23.204,18.95c-0.126,0-0.252,0.011-0.377,0.035c-1.444,0.272-2.303,1.718-1.899,3.092    l1.556,5.286c0.13,0.441,0.382,0.837,0.726,1.141L27,31.85V39h12v-7c0-2.209-1.791-4-4-4h-4.98l-3.049-2.692l-1.317-4.477    C25.345,19.783,24.283,18.95,23.204,18.95L23.204,18.95z"/>
	</g>
</g>
<g>
	<circle style="fill:#DFF0FE;" cx="6.5" cy="19.5" r="4"/>
	<path style="fill:#4788C7;" d="M6.5,16c1.93,0,3.5,1.57,3.5,3.5S8.43,23,6.5,23S3,21.43,3,19.5S4.57,16,6.5,16 M6.5,15   C4.015,15,2,17.015,2,19.5S4.015,24,6.5,24s4.5-2.015,4.5-4.5S8.985,15,6.5,15L6.5,15z"/>
</g>
<g>
	<path style="fill:#B6DCFE;" d="M1.5,38.5V29c0-1.93,1.57-3.5,3.5-3.5h5.168l3.299-2.913l1.358-4.615   c0.251-0.854,1.117-1.522,1.971-1.522c0.095,0,0.19,0.008,0.284,0.026c0.551,0.104,1.015,0.422,1.305,0.896   c0.286,0.467,0.361,1.037,0.207,1.563l-1.555,5.286c-0.104,0.351-0.303,0.665-0.578,0.907L12.5,28.625V38.5H1.5z"/>
	<g>
		<path style="fill:#4788C7;" d="M16.796,16.95L16.796,16.95c0.065,0,0.13,0.006,0.192,0.018c0.411,0.078,0.756,0.314,0.971,0.666    c0.216,0.353,0.27,0.765,0.154,1.161l-1.556,5.286c-0.077,0.261-0.225,0.494-0.429,0.674l-3.79,3.346L12,28.399v0.451V38H2v-9    c0-1.654,1.346-3,3-3h4.98h0.378l0.284-0.25l3.049-2.692l0.216-0.191l0.081-0.277l1.317-4.477    C15.491,17.483,16.174,16.95,16.796,16.95 M16.796,15.95c-1.08,0-2.142,0.833-2.45,1.881l-1.317,4.477L9.98,25H5    c-2.209,0-4,1.791-4,4v10h12V28.85l3.79-3.346c0.345-0.304,0.597-0.7,0.726-1.141l1.556-5.286    c0.404-1.374-0.455-2.819-1.899-3.092C17.048,15.961,16.922,15.95,16.796,15.95L16.796,15.95z"/>
	</g>
</g>
</svg>