<svg xmlns="http://www.w3.org/2000/svg" xmlns:xlink="http://www.w3.org/1999/xlink" version="1.1" id="Layer_1" x="0px" y="0px" viewBox="0 0 40 40" style="enable-background:new 0 0 40 40;" xml:space="preserve" width="40" height="40">
<line style="fill:none;stroke:#4788C7;stroke-miterlimit:10;" x1="16" y1="36.5" x2="22.667" y2="24.5"/>
<path style="fill:#4788C7;" d="M16,35C15.824,35,16.176,35,16,35c-0.828,0-1.5,0.672-1.5,1.5S15.172,38,16,38c0.176,0-0.176,0,0,0  c0.828,0,1.5-0.672,1.5-1.5S16.828,35,16,35z"/>
<line style="fill:none;stroke:#4788C7;stroke-miterlimit:10;" x1="32" y1="36.5" x2="25.333" y2="24.5"/>
<path style="fill:#4788C7;" d="M32,35C32.176,35,31.824,35,32,35c0.828,0,1.5,0.672,1.5,1.5S32.828,38,32,38c-0.176,0,0.176,0,0,0  c-0.828,0-1.5-0.672-1.5-1.5S31.172,35,32,35z"/>
<path style="fill:#4788C7;" d="M24,33L24,33c-0.552,0-1-0.448-1-1V5c0-0.552,0.448-1,1-1h0c0.552,0,1,0.448,1,1v27  C25,32.552,24.552,33,24,33z"/>
<g>
	<rect x="9.5" y="8.5" style="fill:#DFF0FE;" width="29" height="20"/>
	<g>
		<path style="fill:#4788C7;" d="M38,9v19H10V9H38 M39,8H9v21h30V8L39,8z"/>
	</g>
</g>
<g>
	<rect x="8.5" y="5.5" style="fill:#B6DCFE;" width="31" height="3"/>
	<g>
		<path style="fill:#4788C7;" d="M39,6v2H9V6H39 M40,5H8v4h32V5L40,5z"/>
	</g>
</g>
<path style="fill:#B6DCFE;" d="M8,9h1v20h2.837l1.288-15.195L10,13v-2.602L10.652,10C12.07,9.004,13,7.36,13,5.5  c0-0.169-0.01-0.335-0.025-0.5H8V9z"/>
<path style="fill:#DFF0FE;" d="M10,13v-2.602L10.652,10c0.402-0.283,0.76-0.623,1.074-1H9v20h2.837l1.288-15.195L10,13z"/>
<g>
	<circle style="fill:#DFF0FE;" cx="7.5" cy="5.5" r="4"/>
	<path style="fill:#4788C7;" d="M7.5,2C9.43,2,11,3.57,11,5.5S9.43,9,7.5,9S4,7.43,4,5.5S5.57,2,7.5,2 M7.5,1C5.015,1,3,3.015,3,5.5   S5.015,10,7.5,10S12,7.985,12,5.5S9.985,1,7.5,1L7.5,1z"/>
</g>
<g>
	<path style="fill:#98CCFD;" d="M4.5,38.5V27.793l-3-3V17c0-3.033,2.467-5.5,5.5-5.5h15c0.827,0,1.5,0.673,1.5,1.5   s-0.673,1.5-1.5,1.5H11.54l-2,24H4.5z"/>
	<g>
		<path style="fill:#4788C7;" d="M22,12c0.551,0,1,0.449,1,1s-0.449,1-1,1H12h-0.92l-0.076,0.917L9.08,38H5V28v-0.414l-0.293-0.293    L2,24.586V17c0-2.757,2.243-5,5-5H22 M22,11H7c-3.314,0-6,2.686-6,6v8l3,3v11h6l2-24h10c1.105,0,2-0.895,2-2S23.105,11,22,11    L22,11z"/>
	</g>
</g>
</svg>