<svg xmlns="http://www.w3.org/2000/svg" xmlns:xlink="http://www.w3.org/1999/xlink" version="1.1" id="Layer_1" x="0px" y="0px" viewBox="0 0 40 40" style="enable-background:new 0 0 40 40;" xml:space="preserve" width="40" height="40">
<g>
	<g>
		<path style="fill:#DFF0FE;" d="M5.325,38.5c-1.028,0-1.994-0.403-2.718-1.134c-1.484-1.499-1.473-3.926,0.026-5.41l18.865-18.768    l-0.14-0.314c-1.437-3.241-1.021-6.666,1.059-8.726c1.6-1.584,4.389-2.648,6.94-2.648c0.997,0,1.91,0.154,2.724,0.459    l-6.178,6.123l5.983,6.042l6.178-6.122c1.179,3.238-0.161,7.56-2.273,9.652c-1.232,1.22-2.894,1.865-4.805,1.865l0,0    c-1.226,0-2.521-0.28-3.744-0.809l-0.311-0.134L8.017,37.394C7.296,38.106,6.34,38.5,5.325,38.5z"/>
	</g>
	<g>
		<path style="fill:#4788C7;" d="M29.358,2c0.631,0,1.225,0.065,1.777,0.195l-5.227,5.18l-0.71,0.704l0.703,0.71l5.279,5.331    l0.704,0.711l0.711-0.704l5.223-5.176c0.64,2.896-0.55,6.539-2.378,8.349c-1.136,1.125-2.676,1.72-4.452,1.72    c-1.158,0-2.384-0.265-3.546-0.767l-0.622-0.269l-0.48,0.478L7.665,37.038C7.038,37.658,6.207,38,5.326,38    c-0.895,0-1.734-0.35-2.363-0.986c-1.29-1.303-1.28-3.413,0.025-4.704l18.621-18.524l0.488-0.485l-0.279-0.629    c-1.353-3.049-0.979-6.255,0.953-8.168C24.282,3.006,26.93,2,29.358,2 M29.358,1c-2.754,0-5.633,1.151-7.292,2.793    c-2.317,2.294-2.643,5.95-1.164,9.284L2.282,31.601c-1.697,1.681-1.711,4.419-0.03,6.117C3.098,38.572,4.212,39,5.326,39    c1.1,0,2.2-0.417,3.043-1.252l18.677-18.579c1.301,0.562,2.648,0.85,3.942,0.85c1.956,0,3.789-0.656,5.156-2.009    c2.423-2.399,3.812-7.427,2.091-10.88l-6.344,6.287l-5.279-5.331l6.344-6.287C31.871,1.245,30.628,1,29.358,1L29.358,1z"/>
	</g>
</g>
<g>
	<path style="fill:#FFFFFF;" d="M11.716,35.5c-0.698,0-1.166-0.232-1.854-0.918l-6.454-6.455c-1.23-1.23-1.908-2.875-1.908-4.63   c0-1.755,0.678-3.4,1.908-4.63l5.325-5.326c1.25-1.25,2.904-1.938,4.658-1.938c1.847,0,3.63,0.784,4.893,2.152l1.264,1.386   l-1.503,1.496l7.621,7.621c0.519,0.519,0.846,1.365,0.833,2.155c-0.009,0.602-0.212,1.12-0.571,1.458   c-0.414,0.39-0.943,0.587-1.575,0.587l0,0c-0.598,0-1.069-0.181-1.073-0.183l-0.633-0.247l-0.05,0.679   c-0.001,0.014-0.108,1.393-1.043,2.04c-0.44,0.304-0.967,0.458-1.565,0.458c-0.528,0-0.918-0.125-0.922-0.126l-0.603-0.196   l-0.053,0.632c-0.002,0.014-0.12,1.349-1.069,2.063c-0.366,0.276-0.816,0.416-1.338,0.416c-0.726,0-1.337-0.273-1.343-0.276   l-0.436-0.202l-0.22,0.429c-0.004,0.007-0.354,0.684-0.948,1.136C12.702,35.351,12.226,35.5,11.716,35.5z"/>
	<path style="fill:#4788C7;" d="M13.391,12.102c1.708,0,3.357,0.726,4.521,1.987l0.944,1.034l-0.808,0.805l-0.711,0.707l0.709,0.709   l7.266,7.266c0.428,0.428,0.697,1.132,0.687,1.793c-0.004,0.27-0.063,0.772-0.415,1.103c-0.323,0.304-0.726,0.451-1.233,0.451   c-0.493,0-0.886-0.147-0.886-0.147l0,0l-1.281-0.51l-0.088,1.376c-0.001,0.011-0.105,1.158-0.829,1.658   c-0.355,0.245-0.786,0.37-1.281,0.37c-0.437,0-0.761-0.1-0.761-0.1l0,0l-1.202-0.395l-0.112,1.262   c-0.001,0.011-0.109,1.132-0.871,1.706c-0.282,0.212-0.621,0.316-1.037,0.316c-0.61,0-1.132-0.23-1.132-0.23h0l-0.87-0.397   l-0.441,0.848c-0.003,0.006-0.309,0.588-0.807,0.967C12.485,34.887,12.117,35,11.716,35c-0.557,0-0.908-0.18-1.499-0.772   l-6.455-6.455c-2.358-2.358-2.358-6.195,0-8.553l5.326-5.326C10.243,12.738,11.772,12.102,13.391,12.102 M13.391,11.102   c-1.804,0-3.612,0.686-5.011,2.085l-5.326,5.326c-2.739,2.739-2.739,7.228,0,9.967l6.455,6.455C10.215,35.641,10.803,36,11.716,36   c0.609,0,1.19-0.176,1.645-0.523c0.698-0.532,1.09-1.306,1.09-1.306s0.696,0.323,1.553,0.323c0.527,0,1.115-0.122,1.639-0.517   c1.151-0.866,1.266-2.424,1.266-2.424s0.453,0.152,1.079,0.152c0.546,0,1.224-0.115,1.849-0.547   c1.155-0.798,1.258-2.418,1.258-2.418s0.546,0.218,1.257,0.218c0.599,0,1.314-0.154,1.918-0.723   c1.148-1.08,0.848-3.232-0.251-4.332l-7.266-7.266l1.487-1.48l-1.589-1.741C17.238,11.884,15.317,11.102,13.391,11.102   L13.391,11.102z"/>
</g>
</svg>